<svg xmlns="http://www.w3.org/2000/svg" width="22.557" height="22" viewBox="0 0 22.557 22"><title>octocat</title><path d="M11.28 0a11.28 11.28 0 0 0-3.566 21.98.567.567 0 0 0 .77-.543c0-.268-.01-.977-.015-1.918-3.138.68-3.8-1.513-3.8-1.513a2.987 2.987 0 0 0-1.253-1.65c-1.024-.7.077-.686.077-.686a2.37 2.37 0 0 1 1.728 1.163 2.4 2.4 0 0 0 3.282.937 2.41 2.41 0 0 1 .716-1.508c-2.5-.285-5.137-1.252-5.137-5.574a4.36 4.36 0 0 1 1.16-3.026 4.057 4.057 0 0 1 .112-2.985s.947-.3 3.1 1.156a10.69 10.69 0 0 1 5.647 0c2.153-1.46 3.1-1.156 3.1-1.156a4.05 4.05 0 0 1 .112 2.985 4.352 4.352 0 0 1 1.16 3.026c0 4.333-2.638 5.286-5.15 5.565a2.692 2.692 0 0 1 .765 2.09c0 1.507-.015 2.723-.015 3.093a.565.565 0 0 0 .776.542A11.28 11.28 0 0 0 11.28 0z" fill="#fff" fill-rule="evenodd"/></svg>