<svg id="Layer_1" data-name="Layer 1" xmlns="http://www.w3.org/2000/svg" width="287" height="75.449" viewBox="0 0 287 75.449"><defs><style>.cls-1{fill:#fff;}</style></defs><title>graphite-logo_white</title><path class="cls-1" d="M107.2 11.52l-.01.024-.01.025a.57.57 0 0 0 .054-.265.9.9 0 0 0-.262-.555 2.606 2.606 0 0 0-.672-.508 5.267 5.267 0 0 0-.975-.41 7.16 7.16 0 0 0-1.18-.26l-.1-.012-.1-.01-.1-.01-.1-.01-1.988-1.752c.043-.02.084-.04.122-.063a1.252 1.252 0 0 0 .12-.073.957.957 0 0 0 .1-.08l.035-.035.032-.037.028-.038.025-.04.017-.03.014-.03.013-.033.01-.033v-.02l.037-.166v.024l-.01.032-.012.032-.014.03a.484.484 0 0 0 .053-.2.685.685 0 0 0-.2-.478 2.134 2.134 0 0 0-.587-.44 4.677 4.677 0 0 0-.876-.353 6.944 6.944 0 0 0-1.93-.28 5.306 5.306 0 0 0-.756.05 3.324 3.324 0 0 0-.624.147 1.6 1.6 0 0 0-.45.234l-4.05-.52a1.322 1.322 0 0 0-.335-.333 2.854 2.854 0 0 0-.528-.29 4.725 4.725 0 0 0-.692-.23 6.275 6.275 0 0 0-.8-.154l-.11-.012-.107-.01-.108-.01-.107-.008-1.384-1.406h.01q.07-.026.13-.055t.118-.062q.055-.03.1-.065l.04-.03.037-.03.033-.033.03-.033.023-.026.02-.025.018-.027.016-.027.01-.02.01-.02.007-.02.013-.026v-.06l.022-.156v.064l-.007.02-.015.02-.01.02-.01.02-.015.028-.018.027-.02.026a.5.5 0 0 0 .09-.163.448.448 0 0 0-.083-.4 1.358 1.358 0 0 0-.443-.37 3.492 3.492 0 0 0-.726-.3 5.768 5.768 0 0 0-.94-.188 6.5 6.5 0 0 0-.764-.047 5.558 5.558 0 0 0-.7.042 3.853 3.853 0 0 0-.6.12 2.036 2.036 0 0 0-.46.197l-3.622-.44A.846.846 0 0 0 80.73.61a2.032 2.032 0 0 0-.424-.244 3.766 3.766 0 0 0-.575-.194 5.484 5.484 0 0 0-.7-.128 6.256 6.256 0 0 0-.96-.04 5.09 5.09 0 0 0-.862.1 2.766 2.766 0 0 0-.674.22.934.934 0 0 0-.394.33.425.425 0 0 0-.057.163.385.385 0 0 0 .014.153L76.09.956a.385.385 0 0 1-.01-.116l-.01.153a.387.387 0 0 0 .01.117.475.475 0 0 0 .046.115.675.675 0 0 0 .08.113l-2.346.926-.09-.01-.093-.016-.097-.014-.1-.013a6.17 6.17 0 0 0-.77-.048 5.84 5.84 0 0 0-.732.044 4.49 4.49 0 0 0-.65.13c-.06.016-.1.04-.16.06l-.017.007h-.017c-.008 0-.013.007-.02.01-.06.02-.117.04-.17.062l-.05.024s-.065.024-.093.04l-.05.027-.05.028.048-.03.052-.026-3.574-.46a.6.6 0 0 0-.17-.293 1.42 1.42 0 0 0-.366-.256 2.914 2.914 0 0 0-.536-.2 4.746 4.746 0 0 0-.682-.134 6.043 6.043 0 0 0-.972-.047 5.594 5.594 0 0 0-.91.104 3.528 3.528 0 0 0-.753.235 1.418 1.418 0 0 0-.5.346.615.615 0 0 0-.1.17.43.43 0 0 0-.03.17v.155a.423.423 0 0 0 .01.087.472.472 0 0 0 .027.085l.02.038-2.782 1.012-.082-.017-.09-.01-.09-.02-.09-.013a5.86 5.86 0 0 0-.777-.05 6.126 6.126 0 0 0-.762.046 5.264 5.264 0 0 0-.7.135 3.564 3.564 0 0 0-.6.215l-3.523-.483v-.062.06a.474.474 0 0 0-.09-.305.976.976 0 0 0-.3-.27 2.2 2.2 0 0 0-.49-.213 4.017 4.017 0 0 0-.667-.14 5.816 5.816 0 0 0-.984-.046 6.16 6.16 0 0 0-.962.11 4.487 4.487 0 0 0-.84.246 2.123 2.123 0 0 0-.61.364.965.965 0 0 0-.158.18.586.586 0 0 0-.082.18.444.444 0 0 0-.01.172v-.02l.017.16a.425.425 0 0 0 .01.052l-3.212 1.08-.075-.015-.077-.016-.08-.014-.08-.012a5.714 5.714 0 0 0-1.025-.05 6.47 6.47 0 0 0-1.023.122 5.078 5.078 0 0 0-.916.27 2.638 2.638 0 0 0-.693.4.913.913 0 0 0-.325.462.5.5 0 0 0 0 .21c0-.007-.006-.013-.007-.02l.024.165a.534.534 0 0 0 .07.2.784.784 0 0 0 .152.182 1.29 1.29 0 0 0 .23.162 2.086 2.086 0 0 0 .308.14l.066.023.064.018.07.02.075.02.06.016.067.014.064.014.064.013.037.008.04.006.038.006.04.006h.095l.06.008.06.007.062.007.06.005h.008l.13 1.653c-.145.04-.285.084-.42.134s-.263.1-.383.16a3.125 3.125 0 0 0-.336.19 2.2 2.2 0 0 0-.28.213 1.432 1.432 0 0 0-.204.227.91.91 0 0 0-.12.228.657.657 0 0 0-.038.224.614.614 0 0 0 .042.217l-.012-.035-.01-.034-.008-.033-.006-.034.02.14-3.786 1.39-.088-.015-.086-.02-.088-.017-.09-.015a5.588 5.588 0 0 0-1.15-.063 6.857 6.857 0 0 0-1.178.155 5.92 5.92 0 0 0-1.082.345 3.513 3.513 0 0 0-.855.512 1.433 1.433 0 0 0-.45.593.7.7 0 0 0 .017.516.712.712 0 0 1-.048-.127l.036.18a.72.72 0 0 0 .08.21.926.926 0 0 0 .148.194 1.33 1.33 0 0 0 .217.176 1.95 1.95 0 0 0 .285.153l.075.024.07.032.077.027.08.026.067.02.076.017.07.018.072.017.04.01.043.007.042.007.043.008h.109l.062.01.063.007.057.025h.017l-.146 2.2c-.17.052-.337.11-.5.174s-.314.135-.46.21a4.148 4.148 0 0 0-.415.246 3.146 3.146 0 0 0-.356.277 1.7 1.7 0 0 0-.496.7.89.89 0 0 0 .013.61.9.9 0 0 1-.046-.124l.04.187a.9.9 0 0 0 .09.24 1.1 1.1 0 0 0 .16.22 1.48 1.48 0 0 0 .232.2 2.062 2.062 0 0 0 .3.176l.077.035.08.034.083.032.087.03.08.02.073.022.076.02.078.02.045.01.046.01.045.01.047.01.03.005.028.006.03.005h.028l.073.013.075.01.075.01.075.007.075.007.076.006.076.005H33.832l.1-.007.1-.007.1-.01.1-.01.13-.018.128-.02.128-.02.127-.024c.146-.028.29-.06.43-.1s.28-.078.416-.124.268-.1.395-.15.25-.11.367-.17l4.42.835a.98.98 0 0 0 .025.253c-.006-.024-.02-.047-.023-.07l.026.2a1.033 1.033 0 0 0 .1.307 1.28 1.28 0 0 0 .2.285 1.757 1.757 0 0 0 .294.256 2.477 2.477 0 0 0 .386.22l.084.038.087.036.088.03.094.032.078.025.08.024.082.022.084.02.044.016.048.01.05.01.048.01.03.007.03.005.03.005.032.005.08.01.078.01.074.013.078.01h.03l.223 2.81a5.535 5.535 0 0 0-.533.22 4.7 4.7 0 0 0-.487.267 3.805 3.805 0 0 0-.427.31 2.986 2.986 0 0 0-.355.354 1.847 1.847 0 0 0-.438.887 1.322 1.322 0 0 0 0 .428v-.008l.032.2a1.344 1.344 0 0 0 .113.364 1.58 1.58 0 0 0 .22.34 2.026 2.026 0 0 0 .32.3 2.685 2.685 0 0 0 .42.262l.093.045.1.043.1.04.1.04.086.03.092.034.09.027.092.026.052.015.053.014.054.012.056.008.037.01.033.008.034.007.033.004.085.015.086.012.087.012.086.01.086.01.082.01.088.005.087.004h.658l.1-.006.104-.004.11-.01.11-.012.112-.014.143-.02.142-.025.14-.027.14-.03q.244-.056.48-.13c.155-.05.308-.1.455-.164s.29-.125.426-.2.266-.145.39-.225l5.16 1.07.017.2a1.542 1.542 0 0 0 .12.477 1.86 1.86 0 0 0 .272.447 2.455 2.455 0 0 0 .42.4 3.294 3.294 0 0 0 .556.34l.1.048.106.046.108.044.113.04.095.033.1.03.1.03.1.027.056.014.052.014.057.013.057.013.035.007.036.007.036.007.036.008.09.016.09.014.09.016.09.01h.05l.818 3.658a4.955 4.955 0 0 0-.547.272 4.246 4.246 0 0 0-.512.35 3.54 3.54 0 0 0-.435.412 2.955 2.955 0 0 0-.342.468 2.47 2.47 0 0 0-.223.5 2.142 2.142 0 0 0-.1.5 2.042 2.042 0 0 0 .025.49v-.02q-.014-.085-.02-.172l.016.212q.007.087.02.173t.036.17c.013.053.028.1.045.154l-5.167 3.06-.14-.05-.142-.046-.148-.04-.15-.04a5.7 5.7 0 0 0-1.336-.155 6.463 6.463 0 0 0-1.347.14 6.565 6.565 0 0 0-1.283.414 5.834 5.834 0 0 0-1.138.66l-5.84-1.45c0-.024.007-.046.01-.07s.004-.057.006-.086 0-.058 0-.086v-.106s0-.07-.006-.105-.007-.068-.01-.1-.01-.068-.017-.1v-.028l-.04-.206v.018q.01.05.015.1t.012.1q0 .052.006.105v.063a2.014 2.014 0 0 0-.43-1.25 2.588 2.588 0 0 0-.734-.636 3.826 3.826 0 0 0-1.06-.42l-.15-.033-.15-.03-.155-.024-.1-.013.114-3.92q.16-.063.316-.132t.3-.145q.148-.076.29-.158t.273-.17l.113-.08.11-.08.107-.078.1-.085.077-.068.075-.068.072-.07.07-.07.056-.05.048-.054.047-.054.045-.054.01-.01.008-.012.01-.01.008-.012.048-.06.045-.062.042-.06.04-.062.038-.06.035-.06.033-.06.03-.06.03-.06.027-.062.025-.06q.012-.03.022-.062t.02-.064q.01-.032.02-.064t.016-.063q.007-.033.014-.064t.012-.072l.01-.07c0-.025 0-.048.005-.072s0-.047 0-.07v-.078-.077s0-.05-.01-.076-.006-.05-.01-.074l-.04-.2q.008.037.013.075v.02a1.48 1.48 0 0 0-.13-.45 1.883 1.883 0 0 0-.678-.756 3.42 3.42 0 0 0-1.183-.477 5.4 5.4 0 0 0-1.13-.117 6.7 6.7 0 0 0-1.178.1 7.143 7.143 0 0 0-1.153.3 6.392 6.392 0 0 0-1.058.487l-4.875-1.085.015-.062s.01-.043.012-.065l.01-.08s.006-.054.007-.08v-.08-.078s0-.038-.004-.058 0-.04-.008-.058-.007-.038-.01-.056-.008-.037-.013-.055l-.053-.2c0 .02.01.038.013.056l.01.056.005.052a1.25 1.25 0 0 0-.248-.6 1.79 1.79 0 0 0-.568-.477 3.184 3.184 0 0 0-.872-.315 5.436 5.436 0 0 0-1.435-.1 7.695 7.695 0 0 0-2.982.8 5.532 5.532 0 0 0-1.218.82 3.69 3.69 0 0 0-.386.4 2.644 2.644 0 0 0-.274.407 1.9 1.9 0 0 0-.164.4 1.44 1.44 0 0 0-.053.388l-5.88 2.533-.11-.042-.116-.04-.12-.035-.127-.033a5.253 5.253 0 0 0-1.52-.116 8.167 8.167 0 0 0-1.68.283 9.157 9.157 0 0 0-1.662.634 7.427 7.427 0 0 0-1.46.946 4.264 4.264 0 0 0-.962 1.1 1.947 1.947 0 0 0-.294 1.054 1.307 1.307 0 0 0 .11.47v-.008l.09.21a1.31 1.31 0 0 0 .085.162 1.39 1.39 0 0 0 .108.152 1.518 1.518 0 0 0 .132.142 1.726 1.726 0 0 0 .156.13l.08.058.08.057.09.05.1.05.08.037.08.035.086.033.09.03.052.018.053.016.055.015.055.015.03.01.034.012h.034l.034.008.088.023.09.016.08.015-1.56 4.37c-.273.1-.542.215-.807.34s-.526.264-.78.414-.5.31-.735.48a8.06 8.06 0 0 0-.675.55 5.558 5.558 0 0 0-1.137 1.384A2.766 2.766 0 0 0 0 47.85a1.7 1.7 0 0 0 .392 1.106l-.03-.032q-.054-.067-.1-.138a1.66 1.66 0 0 1-.083-.145l.11.22a1.66 1.66 0 0 0 .08.145q.046.07.1.138t.114.13q.06.065.13.124.04.033.086.068t.093.068q.048.033.1.065t.1.062l.088.047.093.045.1.042.1.04.057.02.058.02.06.02.058.02.037.01.038.01.04.01.037.01.1.024.1.02.1.02.1.017.1.015.1.013.1.01.106.01.11.006h.594l.125-.008.128-.008.146-.013.147-.016.148-.02.15-.023.19-.032.194-.038.195-.043.2-.048q.34-.09.682-.2t.675-.258c.222-.094.442-.2.657-.306s.425-.227.63-.352l5.685 1.655a3.06 3.06 0 0 0-.21.94 2.253 2.253 0 0 0 .18 1c-.004-.012-.012-.023-.017-.036l.09.22a2.124 2.124 0 0 0 .12.244 2.168 2.168 0 0 0 .153.23 2.273 2.273 0 0 0 .184.214 2.456 2.456 0 0 0 .216.2q.05.04.1.077t.106.073q.054.036.11.07t.118.066l.1.05.1.05.106.045.11.043.062.023.063.023.06.01.066.02.04.013.042.012.04.01.042.01.1.025.105.023.107.02.054.01-1.29 6.095a9.88 9.88 0 0 0-1.766 1.05 9.5 9.5 0 0 0-.805.673 8.87 8.87 0 0 0-.728.765A6.886 6.886 0 0 0 9.9 64.6a4.3 4.3 0 0 0-.3 1.884 3.014 3.014 0 0 0 .353 1.2l-.047-.084.106.224q.053.107.116.208t.134.2q.072.1.152.188t.17.177q.054.052.112.1t.12.1q.06.048.125.093t.133.088l.11.067.117.064.12.06.12.054.072.03.072.03.074.027.075.028.046.016.045.015.047.014.047.014.118.034.12.03.123.028.12.027.124.02.125.02.126.014.128.013.133.01.134.006H13.69l.147-.007.15-.01.15-.013.172-.02.172-.023.174-.028.175-.033q.115-.022.228-.048t.228-.056q.114-.03.228-.062t.228-.07q.392-.123.78-.286t.765-.36q.376-.2.736-.43t.7-.492l7.135 2.4a4.954 4.954 0 0 0-.11 1.414 4.086 4.086 0 0 0 .358 1.384c-.04-.086-.082-.17-.115-.26l.086.222a3.872 3.872 0 0 0 .186.422 3.783 3.783 0 0 0 .236.4 3.74 3.74 0 0 0 .285.367 3.788 3.788 0 0 0 .334.334q.065.057.132.112t.138.106q.07.052.145.1t.15.1l.128.074.132.07.135.067.14.063.077.033.08.032.08.03.082.03.05.017.05.017.05.015.052.01.13.036.132.036.132.03.133.027.135.023.134.02.135.017.13.01.14.01.142.008H30.525l.156-.006.157-.01.157-.016.178-.02.18-.027.178-.03.18-.036q.115-.025.23-.053t.232-.06q.116-.032.23-.07t.23-.075a8.148 8.148 0 0 0 .83-.342 8.478 8.478 0 0 0 2.232-1.55q.086-.083.17-.168t.162-.173q.08-.087.158-.177t.152-.182q.058-.07.115-.144t.112-.148q.055-.074.107-.15t.1-.15l.072-.11.07-.113.07-.115.065-.115.013-.023.013-.023.013-.023.013-.022q.035-.065.068-.13t.066-.13q.032-.065.062-.13t.06-.13q.027-.064.054-.128t.05-.127q.026-.064.05-.127t.044-.127q.022-.066.042-.13t.04-.13q.018-.063.035-.127t.033-.128q.016-.068.03-.135t.028-.135q.014-.067.024-.134t.02-.132q.01-.075.018-.15t.013-.146q.005-.073.01-.146t0-.145q0-.09 0-.178t-.01-.177q-.005-.088-.014-.174t-.02-.17v-.064l-.01-.032-.006-.032 7.1-5 .086.042.09.038.09.036.09.035.076.027.076.026.077.025.077.025.048.014.048.013.048.013.05.013.12.03.124.026.123.025.124.024.124.02.124.015.122.012.125.01.13.01.128.006h.398l.14-.006.138-.01.14-.01.157-.018.158-.02.157-.026.157-.03q.1-.02.2-.042t.2-.05q.1-.025.2-.055t.2-.06a6.737 6.737 0 0 0 .67-.262 6.633 6.633 0 0 0 .635-.33 6.383 6.383 0 0 0 .588-.39 6.045 6.045 0 0 0 .534-.45l7.485 2.178.004.11a4.42 4.42 0 0 0 .184 1.058 4.633 4.633 0 0 0 .436 1 4.935 4.935 0 0 0 .676.9 5.276 5.276 0 0 0 .9.758q.076.05.155.1t.16.1q.08.047.163.09t.168.087l.14.065.142.063.145.06.148.056.084.03.084.028.084.027.085.025.052.015.05.01.052.013.048.01.133.034.133.03.134.03.133.025.132.02.135.018.132.015.132.012.136.01.134.007H64.845l.145-.006.146-.01.144-.013.163-.02.162-.022.16-.028.16-.032q.1-.022.205-.048t.2-.054q.1-.028.2-.06t.2-.068a5.853 5.853 0 0 0 .694-.305 5.618 5.618 0 0 0 .638-.387 5.347 5.347 0 0 0 .572-.463 5.076 5.076 0 0 0 .5-.533q.06-.074.116-.15t.11-.155q.053-.08.1-.16t.1-.163q.037-.064.07-.13t.068-.13q.033-.066.063-.134t.06-.136q.02-.05.04-.1t.038-.1q.018-.05.035-.1t.033-.1l.006-.02.006-.022.006-.02.006-.022q.017-.058.032-.117t.03-.116q.012-.058.024-.116t.022-.116q.01-.057.02-.114t.015-.114q.007-.057.012-.114t.01-.113V63.81l.01-.224v.099q0 .057-.01.113l-.005.05a4.35 4.35 0 0 0 .012-.816 4.394 4.394 0 0 0-.137-.79 4.534 4.534 0 0 0-.214-.585l5.432-4.487.1.038.1.036.1.035.1.032.078.024.08.023.08.02.08.023.048.013.047.008.045.016.05.01.123.028.127.026.123.02.123.02.122.017.122.016.12.012.122.01.124.008.124.005h.377l.13-.004.13-.008.13-.01.147-.017.145-.018.142-.023.14-.027q.092-.018.182-.04t.178-.044q.088-.025.175-.05t.172-.057a4.947 4.947 0 0 0 .6-.25 4.493 4.493 0 0 0 .54-.32 4.045 4.045 0 0 0 .476-.383 3.674 3.674 0 0 0 .4-.44q.047-.06.09-.124t.086-.128q.04-.065.08-.13t.072-.135q.027-.053.052-.107t.048-.11q.023-.054.044-.11t.04-.11q.014-.042.027-.083t.025-.083q.012-.042.022-.084t.02-.085v-.067l.01-.046.007-.046.007-.045.007-.046.03-.222-.006.046-.008.046-.008.046-.01.046v.067q-.01.043-.02.085t-.02.084q-.013.04-.026.082t-.027.082q-.02.056-.04.112t-.045.11q-.023.055-.048.108t-.052.107v.01a3.23 3.23 0 0 0 .284-.78 3.3 3.3 0 0 0-.052-1.623 4.11 4.11 0 0 0-.778-1.467 5.3 5.3 0 0 0-1.35-1.17 6.24 6.24 0 0 0-1.792-.737l-.177-.04-.176-.035-.176-.03-.176-.025-2.02-4.97c.062-.035.126-.07.186-.108q.13-.084.252-.175t.23-.19q.11-.1.21-.207.043-.048.084-.1t.08-.1q.04-.05.075-.1t.07-.1q.025-.04.05-.082t.046-.083q.023-.042.044-.085t.04-.087l.027-.065.025-.065q.012-.033.024-.066t.022-.068v-.053q.01-.038.02-.075t.017-.075q.008-.038.015-.075t.012-.075v-.12l.02-.214v.12q-.006.038-.013.075t-.016.076q-.008.038-.017.075t-.02.076v.051l-.022.067-.024.066-.025.066-.027.064q-.02.044-.04.087t-.044.085q-.022.042-.046.083a2.476 2.476 0 0 0 .228-.517 2.278 2.278 0 0 0 .068-1.078 2.5 2.5 0 0 0-.15-.517 2.877 2.877 0 0 0-.185-.345l4.156-2.926.086.027.087.025.082.02.09.022.063.016.065.016.065.014.066.014.042.016h.04l.04.008.04.008.1.018.1.016.1.015.1.012.1.01.1.01.1.01.1.006.1.005h.515l.106-.005.105-.007.118-.01.117-.012.116-.015.113-.017.146-.026.152-.026.14-.033.14-.036a4.352 4.352 0 0 0 .48-.167 3.67 3.67 0 0 0 .43-.212 3.048 3.048 0 0 0 .373-.254 2.512 2.512 0 0 0 .31-.296q.036-.04.07-.083t.065-.084q.03-.043.06-.087t.055-.09q.02-.036.04-.072t.035-.073q.017-.037.033-.074t.03-.074q.01-.027.018-.055l.018-.055.016-.056.014-.058v-.116l.032-.21V35.654q-.006.03-.014.058l-.016.056q-.008.028-.017.056t-.02.055q-.013.038-.028.075t-.033.074q-.017.037-.036.072t-.04.07v.006a1.826 1.826 0 0 0 .207-.522 1.846 1.846 0 0 0-.1-1.09 2.843 2.843 0 0 0-.69-.99 4.564 4.564 0 0 0-1.153-.794 6.1 6.1 0 0 0-1.507-.5l-.147-.027-.147-.026-.147-.02-.145-.017-1.89-3.42.123-.06q.11-.06.21-.125t.188-.135q.09-.07.168-.146.034-.032.067-.066t.062-.07q.03-.034.058-.07t.054-.073l.038-.056.036-.058q.018-.03.034-.06t.03-.06l.02-.044.018-.045.017-.046.014-.045V27.57c0-.02.01-.036.014-.054l.01-.053.01-.053.007-.053.022-.2-.007.053-.01.053-.01.053-.014.053V27.405l-.015.045-.016.047-.018.045-.02.045q-.014.03-.03.06t-.033.06l-.036.057a1.485 1.485 0 0 0 .17-.364 1.33 1.33 0 0 0 .06-.376 1.37 1.37 0 0 0-.046-.37 1.63 1.63 0 0 0-.144-.36 2.08 2.08 0 0 0-.146-.213l3.337-2.044.08.02.078.02.08.02.085.022.055.01.055.012.056.01.056.01.034.007.034.006.034.006.034.004.087.013.086.012.087.01.083.004.085.008.085.007.084.005h.693l.088-.005.1-.007.1-.01.1-.01.1-.012.123-.018.12-.02.117-.025.115-.026a4.008 4.008 0 0 0 .4-.118 3.216 3.216 0 0 0 .357-.15 2.5 2.5 0 0 0 .307-.182 1.9 1.9 0 0 0 .253-.21q.03-.028.057-.058t.052-.06l.047-.063.044-.065.032-.05q.015-.027.028-.053t.025-.053l.023-.055.015-.04.013-.04.01-.04.01-.04v-.061l.032-.192v.066l-.01.04-.02.037-.012.04-.015.04q-.01.026-.022.053t-.025.053l-.028.052-.03.05a1.113 1.113 0 0 0 .044-1.154 2.208 2.208 0 0 0-.616-.714 4.193 4.193 0 0 0-1.007-.573 6.063 6.063 0 0 0-1.3-.363l-.133-.02-.133-.02-.13-.014-.132-.012-1.716-2.458.068-.023q.09-.044.17-.09t.154-.1q.073-.052.137-.107l.056-.05.05-.05.048-.052q.023-.025.043-.053l.03-.042.03-.043.025-.044.023-.045.016-.033.015-.034.013-.034.01-.034v-.027l.01-.03.005-.03.005-.03v-.03l.023-.184v.03l-.004.03-.006.03-.008.03v.028l-.01.034-.014.034-.014.034-.016.033-.023.044-.026.044-.03.043a.973.973 0 0 0 .133-.266.837.837 0 0 0 .037-.28.9.9 0 0 0-.056-.277 1.2 1.2 0 0 0-.14-.268 1.685 1.685 0 0 0-.12-.14l2.782-1.51.065.014.067.014.067.013.067.014.05.01.047.007.048.01.05.007h.12l.075.025.075.01.076.012h.076l.074.008.073.005H89.12l.086-.006.084-.006.084-.008.083-.01.105-.013.1-.016.1-.018.1-.02q.17-.037.326-.085a2.99 2.99 0 0 0 .292-.106 2.25 2.25 0 0 0 .254-.127 1.64 1.64 0 0 0 .212-.145l4.65.7a1.688 1.688 0 0 0 .29.344 2.88 2.88 0 0 0 .427.323 4.337 4.337 0 0 0 .546.288 5.746 5.746 0 0 0 .646.24l.1.032.1.03.106.027.108.026.09.02.09.02.1.02.09.016.05.01.052.008.05.008.053.008h.124l.08.026.078.01.078.007.078.008.077.006.077.005H99.858l.087-.007.086-.007.084-.008.083-.01.103-.004.1-.017.1-.02.1-.02a3.344 3.344 0 0 0 .336-.094 2.5 2.5 0 0 0 .293-.12 1.782 1.782 0 0 0 .244-.142 1.238 1.238 0 0 0 .192-.164l.04-.047q.02-.025.038-.05t.033-.048l.03-.05.018-.04.017-.042.014-.042.012-.042.04-.177-.01.04q-.008.022-.015.043t-.017.04l-.02.04a.7.7 0 0 0 .083-.294.765.765 0 0 0-.036-.267 1.058 1.058 0 0 0-.126-.262 1.63 1.63 0 0 0-.208-.254c-.05-.052-.116-.1-.177-.152l2.275-1.394.05.01.05.01.052.01.05.008.05.008.05.008.048.008.05.007h.12l.075.008.075.008.075.007.074.007.073.006H105.35l.082-.005.08-.005.08-.008.078-.01.1-.012.1-.015.094-.017.09-.02a3.09 3.09 0 0 0 .312-.083 2.225 2.225 0 0 0 .268-.107 1.527 1.527 0 0 0 .22-.128 1.018 1.018 0 0 0 .17-.148l.035-.042.03-.043s.02-.03.027-.044l.023-.045.01-.025.01-.025.01-.025.006-.026.045-.175-.006.026zm-7.9 1.31l-.114-.022-.116-.022-.117-.02-.118-.018a6.8 6.8 0 0 0-.96-.07 5.343 5.343 0 0 0-.856.064 3.46 3.46 0 0 0-.71.187 1.8 1.8 0 0 0-.517.3l-4.58-.672a1.56 1.56 0 0 0-.37-.423 3.038 3.038 0 0 0-.585-.37 4.8 4.8 0 0 0-.758-.296 6.24 6.24 0 0 0-.894-.196l-.106-.017-.11-.013-.11-.01-.11-.01-1.54-1.826.03-.013q.076-.033.144-.068t.13-.074q.06-.04.113-.08l.043-.04.043-.038.04-.04.036-.04.025-.034.023-.032.02-.034.022-.035.013-.027.01-.026.01-.026.01-.025V8.67l.023-.168a.555.555 0 0 0 .005-.088.578.578 0 0 0-.008-.09.628.628 0 0 0-.022-.087.7.7 0 0 0-.05-.128.9.9 0 0 0-.075-.127 1.167 1.167 0 0 0-.1-.122l-.016-.014 2.354-1.148.076.015.06.01.06.01.06.01.042.008.048.008.038.006.043.006h.109l.067.007.066.007.067.006.066.005h.866l.075-.005.074-.006.073-.007.092-.01.09-.013.088-.014.086-.015c.1-.02.2-.042.3-.068a2.76 2.76 0 0 0 .264-.087 1.96 1.96 0 0 0 .227-.1 1.333 1.333 0 0 0 .185-.12l4.08.535a1.42 1.42 0 0 0 .26.265 2.612 2.612 0 0 0 .38.248 4.125 4.125 0 0 0 .482.222 5.6 5.6 0 0 0 .57.185l.09.024.092.022.094.022.1.02.068.03.08.015.08.013.08.013.045.007.045.007.045.006.044.008h.114l.068.008.068.022h.07l.067.006h.04l1.92 1.755c-.05.023-.106.043-.15.07a1.2 1.2 0 0 0-.23.168.75.75 0 0 0-.15.2.576.576 0 0 0-.063.225v-.082l-.038.173v.08a.633.633 0 0 0 .032.242.933.933 0 0 0 .124.242 1.544 1.544 0 0 0 .21.24c.052.048.117.1.18.142zm-8.11.544a.986.986 0 0 1-.092.115.987.987 0 0 0 .096-.116zM67.04 58.948q-.09-.04-.184-.075t-.19-.07q-.1-.032-.194-.063t-.2-.058a6.152 6.152 0 0 0-3.16-.02 5.91 5.91 0 0 0-1.42.57 5.4 5.4 0 0 0-1.2.914l-7.28-2.044v-.076s0-.06-.004-.092 0-.06-.008-.09l-.022-.22q0 .045.008.09t.005.093v.291a3.585 3.585 0 0 0-.8-2.385 4.028 4.028 0 0 0-.986-.874 4.85 4.85 0 0 0-1.322-.574l-.164-.042-.17-.038-.17-.032-.168-.03-.628-5.414q.18-.085.35-.18t.335-.2q.162-.1.314-.217t.293-.236q.06-.052.117-.105t.113-.108q.055-.055.108-.11t.1-.115l.078-.09.074-.092.07-.093q.036-.047.068-.095l.047-.07.053-.076.044-.072.042-.073.008-.016.006-.01.008-.014.006-.016.043-.083q.02-.04.04-.082t.038-.082q.018-.04.035-.082t.032-.08q.015-.04.03-.082t.026-.08q.013-.04.024-.08t.022-.083q.01-.042.02-.083t.016-.083q.008-.04.014-.08t.012-.087q.005-.043.01-.086t.005-.084V45.4v-.078-.078-.078s0-.052-.006-.077l-.022-.217c0 .026 0 .052.007.077s0 .052 0 .078v.242s0 .057-.007.085v.018a2.51 2.51 0 0 0-.008-.567 2.445 2.445 0 0 0-.084-.34l5.222-3.2.08.028.08.026.08.025.078.026.062.02.063.016.067.018.064.016.04.01.04.008.04.01.04.007.1.02.1.018.1.016.1.013.1.012.1.01.1.01.1.007.1.006h.524l.11-.006.112-.008.126-.01.126-.015.125-.017.123-.02.16-.027.157-.032.156-.036.154-.04c.18-.05.357-.107.527-.173a5.2 5.2 0 0 0 .492-.218 4.652 4.652 0 0 0 .45-.26 4.058 4.058 0 0 0 .4-.3l6.178 1.416a2.5 2.5 0 0 0 .2.71 3.048 3.048 0 0 0 .41.67 3.823 3.823 0 0 0 .61.6 4.7 4.7 0 0 0 .787.5l.13.065.133.06.136.06.14.054.116.042.118.04.12.038.145.042.068.02.07.017.07.02.07.016.042.01.043.01.042.008.043.01.107.02.107.02.107.016.108.015h.112l1.846 5a4.327 4.327 0 0 0-.515.34 3.843 3.843 0 0 0-.504.474 3.473 3.473 0 0 0-.4.554 3.285 3.285 0 0 0-.284.632 3.2 3.2 0 0 0-.143.68 3.246 3.246 0 0 0 .005.656c0-.015-.006-.03-.008-.046a3.253 3.253 0 0 1-.01-.472l-.012.22a3.264 3.264 0 0 0 .008.485 3.428 3.428 0 0 0 .08.48 3.668 3.668 0 0 0 .147.476c.04.1.093.206.143.308zm-6.84 1.53l-.01.01-.008.01.007-.01.01-.013zm-1 2.113zm-.06.443v.012-.013zm.55 2.5a4.658 4.658 0 0 1-.242-.517 4.664 4.664 0 0 0 .243.52zM43.312 61.39a3.665 3.665 0 0 1-.3-.452 3.665 3.665 0 0 0 .3.453zm.61.618a3.96 3.96 0 0 1-.445-.418 3.963 3.963 0 0 0 .447.418zm-.786-4.984a4.71 4.71 0 0 0-.358.756 4.168 4.168 0 0 0-.2.764 3.81 3.81 0 0 0-.048.757 3.616 3.616 0 0 0 .1.735 3.56 3.56 0 0 0 .263.7 3.558 3.558 0 0 1-.263-.7l-.012-.048-.01-.048-.01-.05-.01-.05.036.2-6.994 4.734q-.082-.042-.168-.08t-.173-.074q-.09-.036-.18-.068t-.185-.062a5.488 5.488 0 0 0-1.635-.24 6.857 6.857 0 0 0-1.707.222 8.075 8.075 0 0 0-1.682.644 8.52 8.52 0 0 0-1.553 1.03l-6.892-2.227.03-.112.032-.135.028-.134.023-.134.023-.164s.013-.108.017-.162l.01-.16v-.156q0-.15-.015-.293t-.038-.282q-.025-.14-.062-.273t-.085-.262l-.08-.23q.05.13.086.263c.007.027.012.056.02.083a2.94 2.94 0 0 0-.2-.568 2.84 2.84 0 0 0-.765-.975 3.556 3.556 0 0 0-1.215-.64q-.088-.028-.177-.05t-.18-.045q-.092-.02-.185-.037l-.063-.01 1.04-6q.21-.093.414-.195t.4-.215q.2-.113.39-.235t.37-.254q.08-.057.157-.116t.152-.12q.074-.06.147-.12t.144-.126l.11-.1.105-.1.1-.1.1-.1.072-.077.07-.078.073-.086.067-.08.013-.016.013-.016.013-.016.013-.016.07-.09.068-.09.065-.09.062-.09.058-.09.057-.085.053-.088.05-.088.048-.09.046-.09.043-.09q.02-.045.04-.09t.038-.093q.02-.047.036-.094t.033-.093q.016-.047.03-.093t.03-.1q.014-.052.026-.1t.022-.1q.01-.05.018-.1t.017-.125q.007-.062.01-.124t.007-.122V48.843l6.55-3.557.077.032.08.03.08.03.082.028.06.02.06.017.064.018.063.018.04.01.038.01.04.01.04.008.1.02.1.02.1.017.1.016.1.012.1.012.1.01.1.008.106.006h.569l.118-.006.117-.008.135-.012.135-.015.135-.018.135-.022.175-.03.175-.036.174-.04.173-.043q.3-.08.593-.186t.57-.233q.28-.127.542-.276t.5-.32l6.005 1.54a2.494 2.494 0 0 0 .046.7c-.007-.03-.022-.06-.028-.093l.038.22a2.485 2.485 0 0 0 .158.537 2.63 2.63 0 0 0 .28.5 2.94 2.94 0 0 0 .4.452 3.41 3.41 0 0 0 .514.39q.057.036.116.07l.12.067.126.064.13.06.107.047.117.04.113.042.116.038.064.02.066.02.067.016.068.018.042.01.042.01.04.01.043.01.106.024.106.02.107.02.108.017H45.22l.432 5.48a6.57 6.57 0 0 0-.747.43 6.184 6.184 0 0 0-.68.525 5.714 5.714 0 0 0-.6.615 5.25 5.25 0 0 0-.49.71zm-17.09 12.34v.008-.016zm1.876-2.84l.006-.005zm-.383.393l-.01.01-.008.01.01-.012.01-.01zm-.372.437l-.008.01-.006.008.006-.008.01-.01zm-.92 1.5v-.007zm-4.714-6.32q0 .08 0 .158t-.01.16q-.005.08-.015.16c0 .04-.01.08-.017.118a3.862 3.862 0 0 0 .04-.664c0 .026.003.05.003.072zm-.05.642q-.01.066-.023.133t-.027.133q-.015.067-.032.135t-.036.136l-.01.038-.012.038-.012.038-.012.038a4.64 4.64 0 0 0 .17-.725zm-2.36 3.85c.075-.065.145-.134.217-.2-.07.07-.14.14-.214.205zm2.4-4.62a3.3 3.3 0 0 0-.074-.58c.01.044.022.087.03.132q.025.14.038.283c.01.06.01.116.012.17zM10.35 44.947a1.915 1.915 0 0 0-.017-.4c0 .015.007.03.01.046a1.9 1.9 0 0 1 .014.232c0 .037-.005.08-.007.12zm-.006.115q-.006.056-.015.113t-.022.113q-.012.057-.027.115c-.004.02-.01.04-.016.06a2.4 2.4 0 0 0 .084-.458c-.003.022-.002.04-.004.06zm-.1.457q-.014.047-.03.094t-.036.096q-.018.048-.038.1t-.042.1l-.01.02-.01.022-.01.02-.01.022a3.15 3.15 0 0 0 .2-.507zm-3.878-2.64zm1.574 5.362c-.078.052-.16.1-.24.154.08-.05.16-.1.24-.155zm.41-.3q-.185.143-.382.277.2-.135.384-.28zm5.668 1.205v-.005zm-.252.342v-.006zm-.216.353v-.011zm2.235-2.253l-5.556-1.563v-.01q.02-.048.037-.1t.034-.095q.017-.048.032-.095t.033-.116q.015-.06.027-.116t.02-.113q.01-.055.016-.11a2.11 2.11 0 0 0 .013-.242 1.9 1.9 0 0 0-.014-.232 1.754 1.754 0 0 0-.043-.222 1.67 1.67 0 0 0-.07-.21l-.09-.217a1.68 1.68 0 0 1 .07.21c.012.042.018.085.025.128a1.688 1.688 0 0 0-.118-.39 1.79 1.79 0 0 0-.564-.69 2.832 2.832 0 0 0-.97-.456l-.135-.026-.143-.03-.144-.027 1.375-4.32q.187-.068.372-.143t.364-.158q.18-.083.353-.172t.34-.186l.144-.085.14-.087.138-.09.134-.09.1-.073.1-.074.1-.076.095-.076.068-.057.067-.056.066-.058.064-.06.013-.01.013-.013.013-.012.014-.01.07-.068.065-.067.063-.067.06-.066.06-.065.055-.065.053-.065.052-.065.05-.066.047-.066.044-.066.042-.066.042-.07.04-.07.036-.068.034-.07q.018-.037.035-.076t.032-.076q.015-.038.028-.076t.025-.075q.014-.047.026-.093t.02-.09q.01-.046.017-.09t.012-.09v-.064l5.94-2.626.066.025.067.023.07.023.07.02.05.015.05.015.052.013.052.013.032.01.028.005.033.007.033.007.087.014.085.015.086.012.086.012.09.01.087.01.088.006.09.006h.676l.1-.006.118-.01.12-.01.118-.013.12-.015.153-.023.155-.027.154-.03.153-.032c.182-.04.362-.087.54-.14s.355-.113.527-.178.34-.136.5-.212.322-.158.475-.245l4.948 1.134a1.6 1.6 0 0 0-.038.577 1.474 1.474 0 0 0 .073.265c-.014-.04-.035-.08-.045-.12l.05.206a1.5 1.5 0 0 0 .118.316 1.65 1.65 0 0 0 .192.294 1.95 1.95 0 0 0 .263.267 2.42 2.42 0 0 0 .334.235l.09.052.1.05.1.047.1.044.09.034.09.033.092.032.1.03.054.014.055.015.06.012.056.014.035.008.033.01.035.008.035.007.09.016.088.015.09.015.092.012h.007l-.26 3.972a7.05 7.05 0 0 0-.67.31 6.46 6.46 0 0 0-.624.377 5.678 5.678 0 0 0-.564.44 4.865 4.865 0 0 0-.488.5 3.94 3.94 0 0 0-.383.535 3.1 3.1 0 0 0-.254.54 2.52 2.52 0 0 0-.127.537 2.173 2.173 0 0 0 0 .518L22 46.642h-.008q-.064-.03-.13-.056t-.138-.052q-.07-.025-.142-.047t-.147-.043a5.15 5.15 0 0 0-1.344-.17 7.086 7.086 0 0 0-1.447.153 8.53 8.53 0 0 0-1.466.448 8.713 8.713 0 0 0-1.39.714zm-4.82-9.916q-.168.1-.342.187t-.346.168c.24-.11.47-.23.694-.358zm.01-.005a7.472 7.472 0 0 0 .637-.412l-.092.065-.134.092-.137.09-.142.086zm2.27-2.7v.047q0 .044-.012.09t-.016.09q-.01.044-.02.09t-.027.092v.007a1.736 1.736 0 0 0 .08-.43v.015zm-.164.636q-.016.04-.034.078l-.034.07-.037.068-.013.022a2.393 2.393 0 0 0 .2-.453l-.022.065-.028.075s-.02.053-.03.08zm-.12.242l-.025.042-.042.07-.042.066-.044.066-.047.066-.05.066-.052.065-.022.027a3.388 3.388 0 0 0 .325-.465zm6.51-3.418l-.034-.01.107.03-.023-.005zm-.154-.05l.1.034-.016-.01-.07-.02zm1.514.228c.2 0 .4-.01.606-.028h-.038l-.118.01-.1.005h-.35zm5.217-2.464c.012-.023.02-.045.03-.067-.01.02-.018.042-.03.065zm3.576 4.025c-.03-.045-.064-.088-.088-.135-.01-.018-.013-.038-.02-.056a1.6 1.6 0 0 0 .108.188zm.257.314a1.97 1.97 0 0 1-.154-.156c-.01-.01-.014-.023-.023-.034a1.906 1.906 0 0 0 .176.188zm.42.323a2.422 2.422 0 0 1-.307-.215l-.016-.017a2.388 2.388 0 0 0 .323.232zm.472.232l-.05-.02-.1-.045-.1-.047-.1-.05-.1-.046a3.084 3.084 0 0 0 .445.21zm.68.2l.123.023-.036-.006zm.15.027l.124.018h-.013l-.09-.014zm-8.126 13.387v.188l-.006.122q0 .062-.012.124t-.018.126a2.6 2.6 0 0 0 .03-.587 2.22 2.22 0 0 0-.1-.494 2.218 2.218 0 0 1 .1.492v.023zm-.1.866q-.014.052-.03.1t-.03.093l-.033.093-.01.025a3.22 3.22 0 0 0 .17-.617l-.018.1-.022.1-.026.105zm-.346.836l-.05.087-.02.034a4.09 4.09 0 0 0 .31-.635l-.024.062q-.02.047-.04.094t-.04.09l-.042.09-.046.09zm-.217.352l-.062.09-.064.09-.068.09-.07.09-.014.016-.013.016-.012.016-.008.014-.067.08-.07.08-.07.077-.07.078-.1.1-.1.1-.107.1-.016.016a6.51 6.51 0 0 0 .6-.63 5.274 5.274 0 0 0 .462-.65l-.03.048-.055.088zm-5.272 8.67zm3.66-7.048q-.182.13-.373.254t-.377.227a8.314 8.314 0 0 0 .76-.488zm2.15-4.32c-.006-.015-.018-.027-.023-.043.006.017.018.03.024.046s0 .017.006.025c-.005-.006-.005-.013-.008-.02zm-.75-1.002c-.01-.007-.02-.01-.03-.018.01.007.024.012.034.02s.026.03.042.042l-.01-.007c-.01-.016-.018-.027-.036-.038zm.453.46c0 .007.006.014.01.02v-.008zm8.888-2.038h-.257l-.107-.006-.1-.008-.1-.01-.1-.012a5.74 5.74 0 0 0 .665.036zm.7-.036h-.03l-.135.012-.118.008-.118.006h-.289a6.46 6.46 0 0 0 .692-.023zm.7-.11l-.15.03-.176.03-.136.02-.136.02-.1.01c.243-.023.474-.064.705-.108zm.56-.144c-.062.018-.123.04-.185.058l-.174.044-.174.04h-.016c.19-.037.373-.09.55-.142zm.65-.225c-.08.03-.16.067-.24.1-.05.017-.1.03-.153.046.137-.046.267-.095.397-.147zm-.337-9.8a7.1 7.1 0 0 1-.77.153 7.09 7.09 0 0 0 .77-.154zm-2.96 10.275l-.1-.013-.1-.016-.1-.017-.1-.02-.1-.02-.04-.01-.038-.01-.04-.01-.038-.01-.057-.016-.06-.02h-.02l.143.04a4.97 4.97 0 0 0 .655.12zm-.81-.17l-.03-.008-.06-.02-.035-.01zm-.143-.046l-.024-.01-.08-.028-.016-.008zm-.142-.053l-.042-.016-.077-.03zm-8.258 6.64l-.1.09q-.07.062-.144.124t-.148.123l-.152.12-.142.104a7.466 7.466 0 0 0 .686-.56zm-1.46 1.057q-.2.113-.4.215t-.414.193a8.793 8.793 0 0 0 .815-.41zM42.2 47.14c-.01-.022-.028-.043-.037-.066-.02-.046-.026-.1-.042-.143.023.072.046.143.08.21zm.278.475c-.01-.014-.025-.026-.036-.04-.032-.046-.05-.1-.08-.143.038.06.07.124.114.183zm.387.43c-.007-.007-.017-.012-.024-.018-.04-.04-.07-.085-.11-.126.044.05.083.1.133.145zm.49.372l-.018-.013.018.014zm.557.29l-.066-.03-.13-.06-.126-.063-.12-.067-.115-.063a4.007 4.007 0 0 0 .556.283zm.81.26l.14.03-.026-.006-.106-.022zm.178.038l.122.02-.08-.015zm2.12.02a6.433 6.433 0 0 1-.9.08 6.434 6.434 0 0 0 .9-.08zm4.323-3.582q-.005.043-.012.086t-.013.08q-.008.04-.017.08t-.02.083q-.01.04-.02.082t-.025.08l-.01.028a2.778 2.778 0 0 0 .125-.585l-.007.065zm-.385 1.123a3.263 3.263 0 0 0 .266-.6l-.015.047q-.015.04-.03.08t-.032.082q-.017.04-.035.082t-.038.082l-.04.08-.044.083-.007.015-.008.015-.008.015-.008.015-.043.073-.044.072-.046.07-.048.07-.07.095-.07.093-.074.09-.01.012a3.887 3.887 0 0 0 .403-.572zm-.4.58l-.068.078q-.05.058-.1.114t-.108.11q-.055.056-.113.11t-.118.104a4.563 4.563 0 0 0 .502-.517zm-.513.517q-.138.12-.286.23t-.316.218a5.276 5.276 0 0 0 .598-.446zm3.08-19.017zm-.284.425zm.926-.987L48.69 27.06v-.02-.057l-.02-.2v.271a1.308 1.308 0 0 0-.1-.643 1.646 1.646 0 0 0-.4-.56 2.6 2.6 0 0 0-.68-.446 4.1 4.1 0 0 0-.93-.294l-.125-.023-.126-.02-.128-.017-.127-.014-.323-2.78q.13-.044.257-.094t.245-.105q.12-.055.232-.115t.217-.125l.088-.056.085-.057.082-.06.078-.06.058-.048.056-.05.054-.05.052-.05.037-.038.035-.038.034-.04.033-.04.006-.007.006-.008.005-.008.006-.008.035-.045.032-.044.03-.043.028-.044.026-.044.025-.045.022-.043.02-.043.018-.045.016-.044.016-.043.013-.044.01-.047.01-.046.006-.046v-.096-.094-.048l-.02-.19v.24l-.008.046v.018a1.013 1.013 0 0 0 .013-.3 1 1 0 0 0-.03-.113l4.027-1.78.044.01.06.014.058.013.06.013.046.01.046.01.047.01.053.01.03.004h.086l.074.01.075.01.075.01.075.008.075.007.075.006H53.45l.093-.005.094-.008.094-.01.094-.01.12-.015.12-.018.117-.02.118-.022c.132-.027.262-.057.388-.092s.248-.074.366-.116.23-.09.34-.138.21-.1.307-.16l4.556.792a1.027 1.027 0 0 0 .11.384 1.45 1.45 0 0 0 .264.36 2.225 2.225 0 0 0 .407.322 3.3 3.3 0 0 0 .54.27l.096.05.094.033.1.032.1.03.082.022.083.022.085.02.082.02.05.01.05.01.05.01.05.008.03.005.032.005.03.005h.032l.076.018.078.01.078.01.078.007h.02l.965 2.622a4.043 4.043 0 0 0-.4.18 3.174 3.174 0 0 0-.4.25 2.418 2.418 0 0 0-.332.29 1.85 1.85 0 0 0-.25.33 1.438 1.438 0 0 0-.15.358 1.235 1.235 0 0 0-.04.353v-.018.2a1.234 1.234 0 0 0 .016.184 1.307 1.307 0 0 0 .044.182 1.425 1.425 0 0 0 .07.178l.012.014-4.09 2.153-.118-.034-.12-.032-.125-.028-.126-.027a5.87 5.87 0 0 0-1.123-.11 6.22 6.22 0 0 0-1.11.1 5.716 5.716 0 0 0-1.03.286 4.46 4.46 0 0 0-.885.454zm-12.23-8.508h.005zm-.186.15zm.61-.425l-4.3-.79v-.028-.048-.126l-.005-.04-.032-.187.01.044v.111a.86.86 0 0 0-.035-.25 1.036 1.036 0 0 0-.283-.448 1.877 1.877 0 0 0-.55-.357 3.488 3.488 0 0 0-.8-.235l-.1-.02-.114-.017-.113-.014-.076-.008.063-2.147q.13-.038.257-.08t.248-.087q.12-.046.236-.1t.223-.105l.086-.045.084-.046.08-.048.08-.05.058-.04.057-.038.055-.04.053-.038.038-.03.037-.03.036-.032.036-.03.007-.007.007-.006.007-.007.007-.006.036-.036.034-.035.033-.036.03-.037.03-.035.027-.035.025-.035.022-.035.022-.036.02-.035.02-.035.016-.035.016-.037.014-.037.012-.037.01-.036.01-.04.008-.04v-.08-.13l-.02-.124 3.786-1.412.052.013.053.014.055.012.053.008.04.008.04.008.042.01.04.007H41.945l.065.01.066.007.066.007.066.007.066.005H43.052l.087-.005.086-.006.086-.006.084-.008.11-.013.11-.014.108-.017.108-.018q.19-.033.37-.077c.122-.03.24-.062.355-.1s.226-.074.332-.116.208-.086.3-.134l3.94.633.015.15a.725.725 0 0 0 .084.274 1.03 1.03 0 0 0 .2.255 1.645 1.645 0 0 0 .3.227 2.57 2.57 0 0 0 .4.193l.077.028.08.027.08.025.085.024.07.02.082.042.074.017.075.016.04.007.044.007.043.008.044.007h.109l.07.025.068.008.07.008.062.008h.046l.46 2.052c-.142.046-.28.1-.408.154a3.63 3.63 0 0 0-.386.2 2.73 2.73 0 0 0-.33.228 1.972 1.972 0 0 0-.267.258 1.376 1.376 0 0 0-.186.28.992.992 0 0 0-.092.282.86.86 0 0 0 0 .273c0-.02-.006-.038-.008-.058l.017.184a.85.85 0 0 0 .012.086q.007.04.02.082l-3.964 1.716h-.006l-.11-.035-.1-.027-.112-.025-.115-.022a5.6 5.6 0 0 0-.99-.086 6.452 6.452 0 0 0-1.006.08 6.258 6.258 0 0 0-.96.23 4.975 4.975 0 0 0-.857.363zm-4.32-1.052v.048s0 .032-.006.048 0 .032-.008.048-.006.032-.01.05v.054a1.21 1.21 0 0 1-.06.16 1.174 1.174 0 0 0 .06-.16.95.95 0 0 0 .04-.26s-.018.01-.018.014zm.033-5.36v.063c0-.02-.008-.04-.01-.06zm0 .116v.04l-.007.042-.01.04-.01.038-.01.037a.76.76 0 0 0 .046-.248v.01zm-.074.27l-.018.036-.02.035-.02.035-.02.035-.022.04-.007.008a1.08 1.08 0 0 0 .138-.258l-.012.035zm-.183.282l-.03.035-.034.037-.034.036-.037.035-.007.006-.007.006-.01.014h-.005l-.035.03-.036.032-.037.03-.038.03-.054.042-.056.04-.057.04-.015.01a2.6 2.6 0 0 0 .327-.254 1.7 1.7 0 0 0 .233-.26l-.017.023-.026.035zm-.49.422l-.04.027-.078.05-.082.047-.084.046-.086.045-.015.007a3.68 3.68 0 0 0 .383-.22zm4.707-2.632l.078.015h-.018l-.04-.007zm3.64-5.04a1.133 1.133 0 0 0 .177-.2l-.013.018-.02.027-.017.028-.023.028-.025.028-.026.028-.028.028h-.02l-.027.024-.027.024-.03.024-.03.023-.04.032-.045.03-.046.03h-.007a1.848 1.848 0 0 0 .247-.17zm-.254.194l-.04.024-.063.038-.066.037-.068.035-.07.035a2.776 2.776 0 0 0 .306-.168zm-.288.335l.068-.033.068-.036.066-.037L45 6.69l.047-.03.046-.03.044-.032.042-.032.03-.023.026-.02.028-.025.027-.024H45.313l.03-.052.026-.028.025-.028.024-.028.02-.027.02-.027.02-.027.016-.028.016-.028.014-.028.013-.028.01-.024.01-.03.01-.028.006-.03.004-.028v-.064-.062l-.018-.165v.127l-.005.03-.006.028-.008.03-.01.028-.01.027-.016.027-.014.028-.016.028-.017.027v.007a.683.683 0 0 0 .093-.2.5.5 0 0 0 .013-.2c0-.012-.01-.023-.013-.034l3.203-1.106.05.01.048.01.052.01.05.008.036.006.032.006.037.01H49.185l.06.02.056.007.06.007h1.04l.075-.007.1-.01.1-.01.095-.014.094-.014c.11-.017.216-.037.32-.06s.205-.048.3-.076.192-.058.282-.09.175-.07.256-.1l3.57.5v.032a.526.526 0 0 0 .073.237.868.868 0 0 0 .192.222 1.59 1.59 0 0 0 .3.2 2.675 2.675 0 0 0 .405.166l.07.022.068.013.075.02.075.018.064.018.065.01.066.013.068.012.038.005.038.007.04.006.038.006h.096l.06.02.063.007.062.007.062.007h.037l.59 1.587c-.114.035-.224.07-.326.112a2.994 2.994 0 0 0-.327.153 2.1 2.1 0 0 0-.274.178 1.4 1.4 0 0 0-.213.2.9.9 0 0 0-.136.213.64.64 0 0 0-.055.214.587.587 0 0 0 .02.2c0-.015-.008-.03-.01-.044a.59.59 0 0 1-.012-.088l.007.176a.592.592 0 0 0 .01.088.636.636 0 0 0 .025.087l.012.024-3.288 1.3-.092-.02-.095-.02-.1-.02-.1-.015a5.732 5.732 0 0 0-.867-.066 6.273 6.273 0 0 0-.864.06 5.69 5.69 0 0 0-.81.17 4.17 4.17 0 0 0-.7.272l-3.888-.61v-.01l-.02-.172v.174a.618.618 0 0 0-.057-.39.983.983 0 0 0-.3-.34 2.04 2.04 0 0 0-.518-.27 3.774 3.774 0 0 0-.72-.178l-.1-.014-.1-.012-.1-.01-.1-.008-.186-1.632q.106-.028.21-.06t.2-.065q.1-.036.188-.074t.176-.08zm4.09-2.41l.078.01h-.015l-.054-.01zm.087.015l.078.013h-.02l-.036-.006zm6.756.46c0-.006-.013-.012-.017-.02s0-.02-.01-.03c.007.013.015.03.026.048zm.3.284c-.04-.027-.09-.052-.125-.08a.862.862 0 0 1-.1-.122 1.127 1.127 0 0 0 .224.198zm.582.28a2.694 2.694 0 0 1-.4-.164c-.034-.018-.048-.035-.078-.05a2.448 2.448 0 0 0 .476.21zm.814.17l.08.01h-.024zm.1.01l.08.01-.062-.007zm6.122-2.41l.05.01.05.01.052.008.052.01.037.005.037.006.038.004.038.005h.093l.06.007.058.005.062.02h1.009l.07-.007.09-.01.09-.01.09-.014.088-.013c.1-.015.2-.035.3-.056s.187-.046.275-.072.17-.055.25-.086.153-.064.22-.1l3.577.468a.59.59 0 0 0 .117.242 1.142 1.142 0 0 0 .243.227 2.134 2.134 0 0 0 .36.2 3.462 3.462 0 0 0 .463.168l.075.022.072.024.083.018.08.018.066.014.07.014.068.012.067.012.04.006.038.006.04.006.04.005h.096l.06.007.06.006.062.006h.1l.982 1.492c-.08.027-.158.054-.23.085a2.092 2.092 0 0 0-.273.144 1.367 1.367 0 0 0-.216.167.883.883 0 0 0-.152.19.675.675 0 0 0-.04.082.59.59 0 0 0-.028.083.542.542 0 0 0-.014.082.53.53 0 0 0 0 .062V6.803l-.008.166v.063a.55.55 0 0 0 .016.125.645.645 0 0 0 .044.124.81.81 0 0 0 .07.12l-2.77 1.195-.092-.02-.094-.017-.1-.016-.1-.015a6.1 6.1 0 0 0-.86-.062 5.937 5.937 0 0 0-.822.055 4.782 4.782 0 0 0-.74.16 3.086 3.086 0 0 0-.613.258l-3.977-.582a.715.715 0 0 0-.163-.366 1.437 1.437 0 0 0-.384-.32 2.8 2.8 0 0 0-.578-.256 4.555 4.555 0 0 0-.747-.17l-.1-.012-.1-.01-.1-.01-.1-.01-.63-1.578c.04-.013.084-.025.125-.04q.088-.028.17-.06t.155-.066q.076-.035.146-.073l.06-.033.057-.034.054-.035.052-.036.037-.028.036-.03.034-.03.033-.03.023-.02.022-.024.02-.023.02-.023.02-.026.02-.026.016-.026.016-.026.034-.046.012-.026.01-.026.01-.026.007-.026.005-.026v-.095V4.49v.01a.49.49 0 0 0-.036-.182c-.007-.014-.02-.027-.026-.042zm.093-.14l.07.01h-.013l-.05-.01h-.006zm1.038.09a6.012 6.012 0 0 0 .75-.045l-.084.01-.09.008-.07.006-.073.005h-.072L65 3.177H64.716zM77.67 1.997l.05.01.054.01.053.008.053.008.038.006.038.005.038.005H78.13l.058.006.06.006.058.005H79.222l.067-.005.067-.006.087-.01.085-.01.083-.01.087.01q.144-.025.277-.056t.252-.07c.078-.026.153-.053.222-.083a1.746 1.746 0 0 0 .187-.1l3.646.45a.844.844 0 0 0 .182.225 1.7 1.7 0 0 0 .3.21 2.97 2.97 0 0 0 .4.19 4.422 4.422 0 0 0 .487.155l.078.02.08.02.08.017.084.017.063.015.07.012.07.012.07.01.04.006.04.006.04.005.04.005h.098l.06.022h.06l.062.005h.108l1.373 1.448c-.053.02-.11.04-.158.063a1.47 1.47 0 0 0-.23.138.893.893 0 0 0-.17.16.577.577 0 0 0-.1.18.463.463 0 0 0-.017.148.46.46 0 0 1 0-.062l-.022.163a.483.483 0 0 0 .01.172.625.625 0 0 0 .065.184.954.954 0 0 0 .127.17c.02.02.047.04.07.06l-2.382 1.128-.1-.02-.1-.017-.1-.016-.1-.016a6.457 6.457 0 0 0-.865-.06 5.61 5.61 0 0 0-.79.054 3.988 3.988 0 0 0-.68.154 2.232 2.232 0 0 0-.53.245l-4.018-.55a.945.945 0 0 0-.254-.35 2.054 2.054 0 0 0-.46-.306 3.69 3.69 0 0 0-.63-.242 5.39 5.39 0 0 0-.776-.16l-.1-.014-.1-.01-.1-.01-.1-.008-1.05-1.506.064-.02q.078-.03.15-.06t.14-.064q.065-.033.123-.07l.048-.03.047-.033.044-.033.04-.034.03-.026.028-.028.03-.028.024-.03.018-.02.015-.02.014-.023.012-.02.012-.026.01-.025.01-.026.008-.025.018-.042V3.5l.01-.16V3.37a.444.444 0 0 0-.01-.178.582.582 0 0 0-.083-.173l-.047-.053zm.107-.138l.076.012h-.014l-.054-.01h-.01zm3.25-.79v.01-.01zm3.236.856a.415.415 0 0 1-.013-.07.414.414 0 0 0 .013.07zm.283.37c-.018-.014-.043-.028-.06-.042a.842.842 0 0 1-.186-.228.95.95 0 0 0 .246.265zm.1.074a2.294 2.294 0 0 0 .308.177c-.058-.028-.124-.053-.176-.083s-.078-.068-.128-.1zm.454.238a4.188 4.188 0 0 0 .558.19 4.46 4.46 0 0 1-.476-.152c-.03-.01-.054-.026-.082-.038zm1.432.35l.08.008h-.02zm.106.01l.076.008-.06-.005h-.017zm.73 5.613v.015l-.013.03-.01.025-.01.026-.014.025-.02.033-.02.034-.024.032a.675.675 0 0 0 .105-.2.56.56 0 0 0 .02-.09v.068zm-2.84.912h-.087l.106.002h-.02zM71.6 10.18v.018l-.016.028-.018.028-.02.027-.02.027-.028.036-.03.036-.034.034a1.036 1.036 0 0 0 .17-.22.722.722 0 0 0 .085-.23v.02l-.008.03-.01.032-.01.032-.012.032-.014.032-.016.032zm9.942 7.653h-.096l.113.01zm-1.45-.3a5.8 5.8 0 0 0 .957.238l.123.02h-.092l-.03-.005-.05-.022-.05-.01-.05-.008-.05-.01-.09-.018-.09-.02-.086-.02-.084-.022-.1-.03-.1-.03-.1-.032-.1-.033zM78.416 16.1a.84.84 0 0 1-.007-.11.838.838 0 0 0 .007.11zm0 .023a.924.924 0 0 0 .034.138.925.925 0 0 1-.025-.136zm.283.542c-.01-.013-.03-.025-.04-.038s-.012-.027-.02-.04l.06.078zm-4.84-1.14a2.418 2.418 0 0 1-.26.154 3.15 3.15 0 0 1-.3.133c-.024.01-.05.016-.072.024a2.863 2.863 0 0 0 .63-.314zm4.96 20.692a3.316 3.316 0 0 1-.378-.426 2.665 2.665 0 0 1-.214-.345c-.01-.018-.014-.037-.023-.055a2.6 2.6 0 0 0 .237.4 3.312 3.312 0 0 0 .38.427zM77.59 28.99h-.05l-.066-.01.13.01zm-.412-.056l.124.02-.038-.005-.09-.016zm-3.05-2.053a1.39 1.39 0 0 1-.035-.206 1.387 1.387 0 0 0 .036.208zm.254.544c-.012-.018-.032-.034-.043-.052s-.013-.036-.023-.054l.066.106zm.34.408v-.006zm-5.39-2.47a1.865 1.865 0 0 1-.14.18 1.857 1.857 0 0 0 .14-.18zm-.143.185a2.17 2.17 0 0 1-.165.168 2.16 2.16 0 0 0 .166-.17zm-.683.54l-.03.015a3.123 3.123 0 0 0 .342-.218 3.07 3.07 0 0 1-.316.2zm-8.1 3.45v.076l-.005.056q0 .027-.008.055t-.01.057l-.012.057-.013.055-.005.018a1.535 1.535 0 0 0 .056-.408c-.008.008-.008.02-.008.03zm12.565 15.2a5.912 5.912 0 0 0 .77-.077 5.922 5.922 0 0 1-.772.08zm0 0a6.175 6.175 0 0 1-.882-.038h-.112l-.052-.008.163.02a6.185 6.185 0 0 0 .88.04zm-2.888-.63a5.436 5.436 0 0 0 .608.265l-.067-.024-.14-.055-.137-.058-.133-.06-.13-.065zm-1.91-2.054a2.418 2.418 0 0 1-.1-.43 2.42 2.42 0 0 0 .095.432zm.147.355c-.013-.025-.035-.048-.046-.074-.023-.05-.037-.1-.056-.155.023.078.06.153.095.23zm.367.6zm-11.643-1.784a5.922 5.922 0 0 0 1.336.153h-.25l-.1-.005-.1-.007-.1-.01-.1-.01-.1-.012-.1-.014-.1-.017-.1-.018-.1-.02-.04-.008-.04-.01-.04-.008-.04-.01-.066-.016-.064-.016h-.015zm2 .118h-.04l-.126.01-.11.01-.112.005h-.268a6.222 6.222 0 0 0 .657-.026zm.654-.1l-.158.032-.16.028-.124.02-.125.015-.075.008a6.12 6.12 0 0 0 .645-.11zm-.654-9.85q-.125.07-.258.134t-.273.122a4.6 4.6 0 0 0 .532-.263zm.462-.31q-.106.084-.22.16c-.078.052-.158.1-.24.15a3.74 3.74 0 0 0 .46-.315zm.38-.358l-.05.054q-.036.04-.076.078l-.08.076-.086.074-.087.07a2.943 2.943 0 0 0 .38-.352zm.287-.4a1.822 1.822 0 0 0 .174-.414l-.01.035q-.008.028-.018.056t-.02.057l-.024.057-.025.057-.026.058-.03.057-.004.01-.006.01-.006.01-.006.01-.03.05-.03.05-.032.048-.034.048-.046.068-.05.064-.055.063-.007.01a2.317 2.317 0 0 0 .285-.4zm3.527-4.13a3.622 3.622 0 0 1-.357-.194 3.62 3.62 0 0 0 .358.194zm-.5-.286a2.73 2.73 0 0 1-.262-.208 2.723 2.723 0 0 0 .263.208zm-.365-.3a2 2 0 0 1-.266-.323 1.6 1.6 0 0 1-.1-.174 1.44 1.44 0 0 1-.064-.16 1.518 1.518 0 0 0 .16.334 1.993 1.993 0 0 0 .266.324zm1.55.85a4.6 4.6 0 0 1-.578-.208 4.6 4.6 0 0 0 .578.21l.115.028-.045-.012-.062-.017zm-16.73-6.02l-.01.046-.014.044-.014.044-.016.044-.018.044-.02.043-.007.02a1.22 1.22 0 0 0 .108-.31zm-.553-1.2c-.018-.014-.042-.024-.06-.036.018.013.044.023.062.037s.03.03.048.043c-.017-.02-.028-.036-.047-.05zm-.326-.19c-.027-.013-.047-.03-.074-.043-.01-.005-.026-.01-.038-.014.013.007.03.01.042.016.03.014.052.032.08.047zm.626.462c-.016-.02-.042-.035-.06-.054.02.02.045.035.06.055s.01.02.018.027c-.005-.013-.007-.022-.015-.03zm3.672-1.7a2.645 2.645 0 0 1-.272-.146 2.63 2.63 0 0 0 .273.147zm-.374-.223a1.814 1.814 0 0 1-.2-.164 1.807 1.807 0 0 0 .2.165zm-.5-.58q-.016-.04-.03-.082t-.02-.084v-.016a.932.932 0 0 0 .09.266q-.028-.04-.04-.082zm-3.55 4.617q-.105.065-.218.125t-.233.114q-.12.055-.247.105t-.258.094a5.217 5.217 0 0 0 .5-.2 4.25 4.25 0 0 0 .455-.24zm.385-.275l-.05.04-.08.062-.082.06-.085.057-.087.054a3.273 3.273 0 0 0 .385-.274zm.31-.31a1.7 1.7 0 0 0 .21-.316l-.012.022-.024.043-.027.043-.028.044-.03.044-.032.045-.034.044-.007.007-.006.008-.006.008-.005.008-.033.04-.034.04-.035.037-.043.037-.052.05-.054.05-.056.05h-.006a2.4 2.4 0 0 0 .312-.303zm3.944-8.13h-.05l.095.008h-.047zm-6.9-1.693c-.07.02-.14.04-.213.058-.12.03-.246.055-.372.077l-.108.018-.11.016a6.137 6.137 0 0 0 .804-.168zm4.746.52zm.085.257l-.007-.01zm.24.28c-.016-.012-.037-.023-.05-.036s-.01-.014-.02-.026c.022.022.047.043.07.064zm.292.21c-.012-.007-.028-.012-.04-.02s-.032-.026-.05-.038l.092.06zm7.226-3.673a.7.7 0 0 1-.036-.086l-.007-.026a.73.73 0 0 0 .094.2 1.106 1.106 0 0 0 .182.2 1.11 1.11 0 0 1-.183-.2.8.8 0 0 1-.05-.086zm8.924.93zm-.878 6.95l-.108-.028-.11-.025-.114-.023-.116-.02a6.078 6.078 0 0 0-1.94 0 5.13 5.13 0 0 0-.87.215 3.557 3.557 0 0 0-.727.342l-4.44-.755v-.06.058a.906.906 0 0 0-.132-.483 1.464 1.464 0 0 0-.4-.423 2.66 2.66 0 0 0-.63-.337 4.335 4.335 0 0 0-.84-.222l-.116-.017-.118-.016-.118-.013-.12-.01-.526-2.026.18-.06s.136-.05.2-.08.128-.055.19-.085.118-.06.174-.093l.07-.042.07-.044.066-.045.063-.047.046-.036.043-.037.043-.038.04-.038.028-.03.027-.028.027-.03.025-.03v-.023l.025-.034.024-.035.023-.034.02-.033.018-.033.017-.033.015-.032.013-.033.012-.034.01-.032.008-.033.007-.033.006-.035v-.07V11.502l-.01-.175v.095a.67.67 0 0 0-.02-.232.753.753 0 0 0-.03-.07l3.3-1.335.056.013.058.013.084.01.06.013.04.007.042.007.042.007.042.007h.104l.066.008.066.008.066.007.066.006.066.005H60.028l.082-.006.08-.007.08-.008.1-.012.1-.014.1-.014.1-.017q.177-.032.343-.074t.327-.072c.1-.034.2-.07.292-.11a2.852 2.852 0 0 0 .26-.127l4.017.6a.762.762 0 0 0 .117.3 1.266 1.266 0 0 0 .255.28 2.168 2.168 0 0 0 .382.25 3.377 3.377 0 0 0 .5.21l.082.025.082.022.086.024.086.025.073.017.075.017.08.017.072.013.043.008.044.008.044.007.045.007h.107l.07.01.068.007.07.007.07.007h.04l1 1.944c-.107.04-.213.078-.31.124a2.56 2.56 0 0 0-.333.188 1.788 1.788 0 0 0-.27.22 1.245 1.245 0 0 0-.195.25.91.91 0 0 0-.106.264.784.784 0 0 0-.01.24.794.794 0 0 1-.008-.087v.18a.8.8 0 0 0 .013.16.88.88 0 0 0 .047.16 1.04 1.04 0 0 0 .077.157l.013.018zm-.2 3.21a5.634 5.634 0 0 1-.586.1 5.63 5.63 0 0 0 .587-.1zm-3.958-2.63zm-.158.132zM55.1 11.454l-.006.035-.007.032-.01.033-.01.033-.01.033-.014.034-.005.012a.756.756 0 0 0 .062-.242zm-.063.215l-.01.018-.014.036-.013.03-.02.033-.022.033-.024.034-.025.033v.023l-.026.03-.026.03-.027.03-.027.028-.04.038-.044.038-.045.037a1.64 1.64 0 0 0 .238-.23 1.074 1.074 0 0 0 .126-.24zm-.393.474l-.042.033-.063.046-.067.045-.07.044-.065.04a2.394 2.394 0 0 0 .308-.208zm-.307.208q-.084.048-.176.093c-.058.03-.12.057-.183.084a3.4 3.4 0 0 0 .36-.18zm4.908-5.136zm-.5 2.48a5.88 5.88 0 0 0 .87.064H59.18l-.065-.005-.066-.006-.068-.026-.066-.008-.066-.006h-.104l-.046-.02-.042-.008h-.013zm.006-2.41h-.006zm-.116 2.39h-.013l-.04-.01-.027-.004zm-.187-.035l.086.02h-.014l-.06-.016zm7.61.554c-.01-.01-.022-.02-.03-.03s-.006-.023-.012-.034l.04.064zm-.148-.33v-.018.02zm2.846 5.534a2.6 2.6 0 0 0 .238.155 2.6 2.6 0 0 1-.237-.155zm-.346-.312a1.278 1.278 0 0 1-.107-.152c-.015-.025-.024-.05-.037-.075a1.193 1.193 0 0 0 .144.226 1.763 1.763 0 0 0 .25.242 1.76 1.76 0 0 1-.25-.242zm-.166-.272c-.005-.012-.013-.024-.018-.037a.878.878 0 0 1-.046-.16v-.03a.88.88 0 0 0 .065.227zm.156-3.674h-.033l-.067-.008-.07-.008h-.026l.095.01.105.01H68.4zm-.235-.024l-.07-.01h-.108l-.044-.006-.044-.007-.044-.007-.043-.008-.077-.015-.076-.016-.075-.017-.073-.017-.09-.023-.086-.024-.09-.042-.082-.026a4.952 4.952 0 0 0 .82.193l.105.016.1.012zm-1.494-.425c-.03-.015-.05-.034-.078-.05a3.164 3.164 0 0 0 .57.257 3.39 3.39 0 0 1-.496-.205zm-.38-.25zm.1-1.41h-.007.007zm-.143.108zm-4.617.254c-.093.04-.19.076-.293.11l-.068.02a3.36 3.36 0 0 0 .62-.257 2.88 2.88 0 0 1-.26.128zm-.612.2c-.11.028-.225.052-.342.073l-.1.017-.1.015a5.112 5.112 0 0 0 .74-.16c-.07.02-.133.04-.2.058zm-.648.122l-.1.012-.08.008-.082.007-.082.007h-.399a6.1 6.1 0 0 0 .852-.06zm-.6-2.527zm-1.337 2.45l-.033-.006-.057-.012zm-.96-.356a1.8 1.8 0 0 1-.185-.125 1.783 1.783 0 0 0 .185.126zm-3.5 3.252q-.1.04-.2.08t-.212.07a4.387 4.387 0 0 0 .412-.15zM52.08 18.12a5.74 5.74 0 0 0 .976.083h-.406l-.075-.006-.075-.022-.075-.008-.075-.01-.075-.01-.075-.01h-.088l-.028-.004-.047-.01-.047-.008h-.01zm-.116-.023h-.024l-.046-.01h-.02zm-.11-.024h-.02l-.06-.014h-.01zm2.172.057l-.09.013-.12.016-.093.01-.094.008-.095.008-.094.006h-.382a6.264 6.264 0 0 0 .968-.062zm.86-.2c-.07.022-.136.046-.207.066-.127.035-.257.066-.39.092l-.117.022-.118.02h-.023a5.62 5.62 0 0 0 .854-.206zm.807-.347q-.145.084-.308.16c-.108.05-.222.1-.34.137l-.09.028a4.082 4.082 0 0 0 .738-.33zm4.7 1.214c-.008-.014-.023-.027-.03-.04s-.003-.033-.01-.05q.02.043.047.085zm.235.32zm.472.345c-.02-.01-.043-.02-.06-.03s-.03-.026-.047-.037c.033.023.07.045.107.067zm1.4.492l.11.018h-.017l-.03-.005-.032-.005-.03-.008-.05-.01-.05-.008-.05-.01-.048-.01-.087-.02-.086-.02-.085-.022-.082-.023-.1-.03-.1-.03-.094-.034-.083-.03a4.77 4.77 0 0 0 .913.248zm-.913-.25h-.007l-.013-.008zm1.133.284h-.02l-.077-.01h-.008zm.234.027h-.02l-.078-.008h-.012zM62.828 20l-.05-.005-.04-.006zm1.91 6.544l-.038-.007-.057-.013h-.014zm-.128-.03l-.03-.006-.064-.016h-.008zm.253.056a6.052 6.052 0 0 0 1.12.107h-.297l-.086-.012-.086-.006-.086-.008-.086-.01-.086-.01-.086-.008-.086-.013-.084-.015-.034-.006-.034-.007-.032-.006-.034-.006-.055-.01-.054-.01h-.01zm2.2.013l-.1.018-.132.02-.1.014-.1.01-.1.01-.104.01-.092.004h-.349a6 6 0 0 0 1.076-.084zm-2.215-6.687a4.846 4.846 0 0 0 .543-.157 3.86 3.86 0 0 0 .438-.187c-.067.034-.136.066-.207.1s-.15.062-.228.09a4.834 4.834 0 0 1-.547.154zm1.354-.567c-.054.037-.11.075-.17.11s-.13.075-.2.11a2.926 2.926 0 0 0 .368-.22zm.308-.264l-.035.036-.06.057-.064.055-.066.054-.07.052a2.106 2.106 0 0 0 .293-.255zm.22-.293a1.107 1.107 0 0 0 .118-.3l-.005.022-.01.04-.014.042-.02.047-.017.04-.02.042-.02.04v.03l-.02.036-.024.037-.025.036-.026.035-.038.047-.04.047-.04.046-.008.007a1.5 1.5 0 0 0 .204-.29zm3.41-2.79l-.04-.007-.058-.014zm.11.022h-.024l-.06-.013h-.007zm.11.02h-.027l-.047-.008h-.02zm.116.02a6.14 6.14 0 0 0 .978.08H71.042l-.074-.005-.074-.006-.075-.007-.076-.008-.075-.01-.076-.01h-.12l-.048-.008-.048-.008h-.01zm1.91.008l-.105.016-.11.014-.09.01-.088.01-.09.006-.09.006h-.356a5.87 5.87 0 0 0 .93-.06zm-1.514-5.274q-.085.038-.176.074t-.19.067a3.307 3.307 0 0 0 .365-.138zm.31-.172a1.573 1.573 0 0 0 .243-.2l-.03.03-.05.043-.052.043-.055.04-.058.04q-.07.047-.147.09t-.16.08a2.342 2.342 0 0 0 .308-.16zm-.907-7.342V3.24v.027zm.514.558c-.05-.03-.11-.055-.154-.086a1.144 1.144 0 0 1-.11-.1 1.57 1.57 0 0 0 .263.186zm4.6-.364l-.01.025-.01.025-.013.025-.013.022-.014.022-.015.02-.016.02-.025.03-.026.028-.036.046a.748.748 0 0 0 .138-.172.5.5 0 0 0 .062-.18v.039l-.014.022zm-.386.42q-.06.036-.124.07t-.134.06a1.974 1.974 0 0 0 .26-.133zm-.264.134q-.072.03-.15.058t-.162.052a2.96 2.96 0 0 0 .314-.113zm-2.54.242l.092.01H72.2l-.04-.004-.04-.006-.04-.017-.04-.007-.068-.01-.072-.014-.067-.014-.063-.013-.08-.018-.078-.02-.077-.02-.075-.02h-.007a5.058 5.058 0 0 0 .747.15zm.18.02h-.02l-.06-.007zm.107.01l.1.008h-.105l-.062-.013h-.02zm1.163 1.627zm.74 2.152l-.034-.007-.065-.014zm.11.02h-.01l-.068-.013H74.4zm.116.02h-.013l-.042-.007-.04-.008zm.11.02a6.216 6.216 0 0 0 .86.06H75.09l-.066-.006-.066-.007-.06-.03-.066-.007h-.104l-.043-.006-.047-.02h-.023zm7.252.475c-.01-.01-.026-.02-.036-.03s-.013-.02-.022-.03q.027.03.058.06zm4.85.543h-.005q-.068.036-.144.068t-.158.063a2.4 2.4 0 0 0 .306-.13zm.248-.16l-.01.008q-.052.043-.113.08c-.037.024-.077.047-.118.07a1.588 1.588 0 0 0 .24-.157zm.182-.183l-.026.032-.032.042-.04.04-.043.04-.033.026a1 1 0 0 0 .174-.18zm2.324-2.246l-.027-.005-.055-.014zm.108.018h-.017l-.06-.01h-.01zm.11.017h-.02l-.043-.008h-.026zm.106.014a6.575 6.575 0 0 0 .87.058h-.499l-.066-.005-.066-.006-.065-.026-.068-.007h-.107l-.043-.006-.04-.018h-.015zm.872.058a5.386 5.386 0 0 0 .786-.056h-.02l-.09.012-.09.01-.074.008-.074.006-.075.005h-.075l-.065.01h-.222zm1.41-.207c-.056.02-.11.04-.172.057-.094.026-.193.05-.3.068l-.086.015-.066.01a3.5 3.5 0 0 0 .625-.15zm.5-.253a.925.925 0 0 0 .098-.078.945.945 0 0 1-.093.082 1.332 1.332 0 0 1-.186.12 1.98 1.98 0 0 1-.227.1l-.047.015a1.7 1.7 0 0 0 .46-.238zm.242-.318a.51.51 0 0 1-.017.05.51.51 0 0 0 .017-.05zm.024-.1v-.018zm-4.262-1.347zM87.88 5.89a1.49 1.49 0 0 1-.18-.166l-.01-.01a1.444 1.444 0 0 0 .19.176zm-.233-.233a.954.954 0 0 1-.074-.1c0-.008-.005-.015-.01-.023a.873.873 0 0 0 .084.123zm-.112-.193a.617.617 0 0 1-.035-.077v-.035a.555.555 0 0 0 .035.113zm-3.11 4.02H84.4l-.07-.007h-.01zm-.125-.01h-.042L84.2 9.46zm-.1-.013h-.121l-.044-.006-.045-.007-.04-.023-.05-.006-.075-.014-.078-.015-.077-.017-.076-.017-.094-.02-.09-.024-.09-.024-.084-.024a4.413 4.413 0 0 1-.537-.2c-.034-.015-.058-.033-.09-.048a4.168 4.168 0 0 0 .625.244 5.868 5.868 0 0 0 .846.182zm-1.742-.523c-.064-.035-.137-.067-.193-.1a1.838 1.838 0 0 1-.144-.117 2.41 2.41 0 0 0 .337.217zm-4.793-1.213a2.05 2.05 0 0 1-.22.12c-.08.036-.164.07-.254.1l-.062.018a2.5 2.5 0 0 0 .537-.238zm-.59.257c-.057.018-.11.037-.17.052-.1.026-.2.05-.31.068l-.095.013-.093.01H76.4a4.3 4.3 0 0 0 .674-.146zm-.675.144l-.088.012-.1.01-.077.01-.077.006-.078.006h-.388a5.8 5.8 0 0 0 .808-.044zm-1.393-4.247a1.23 1.23 0 0 0 .204-.153l-.026.025-.04.033-.044.032-.047.032zm-3.59.213A3.49 3.49 0 0 1 71 3.937c-.034-.013-.053-.03-.08-.043a3.192 3.192 0 0 0 .497.196zm-1-.557c-.005-.01-.017-.016-.025-.025s-.007-.018-.013-.027c.012.02.02.036.04.053zm-9.57.97V4.6l-.016.024-.007.026-.01.026v.01a.5.5 0 0 0 .038-.187zm-.6.718q-.07.04-.148.073c-.05.023-.1.044-.156.065a2.755 2.755 0 0 0 .305-.134zm.253-.16l-.035.025-.048.04-.054.034-.057.033-.053.03a1.874 1.874 0 0 0 .247-.164zm0 0a1.177 1.177 0 0 0 .19-.18.72.72 0 0 0 .115-.19l-.005.013-.008.02-.013.027-.016.026-.017.026-.018.026-.02.026-.02.023-.036.047-.022.023-.023.022-.034.03-.034.024-.036.03zm-.562.3q-.082.03-.17.06t-.18.055c.126-.03.244-.07.354-.114zm-8.717 7.544l-.068-.007h-.022zm-.113-.013h-.025l-.068-.008h-.108l-.044-.007-.043-.008-.044-.008-.042-.01-.075-.015-.075-.017-.072-.018-.07-.018-.085-.024-.082-.025-.076-.047-.077-.028a4.1 4.1 0 0 0 .787.2l.106.016zm-5.936-1.96c-.1.047-.2.092-.304.133s-.218.08-.332.116l-.076.02a4.572 4.572 0 0 0 .713-.27zm-1.585.458l-.1.014-.11.013-.085.008-.086.007-.086.006-.086.005H42.693a6.457 6.457 0 0 0 .892-.052zm8.165 6.66l-.035-.01-.057-.014zm10.658 6.89v-.007a1.293 1.293 0 0 1-.044-.18 1.23 1.23 0 0 1-.014-.148 1.27 1.27 0 0 0 .058.336zm-5.67 16.2l-.03-.01-.08-.025h-.014zm.15.04l-.035-.008-.063-.018-.03-.01zm-.42-.13l.126.044-.048-.016zm3.232.188c.166-.036.326-.084.484-.133-.06.018-.115.04-.174.057l-.154.04zm.714-.208c.116-.04.227-.087.338-.135-.072.03-.14.066-.213.094-.04.016-.086.027-.127.037zm.54-.225c.116-.056.226-.118.333-.182-.085.05-.167.1-.256.15-.024.012-.052.022-.076.034zm.493-.274a4.1 4.1 0 0 0 .435-.32 4.057 4.057 0 0 1-.4.3zm7.773 3.007q.076.063.155.123c-.026-.02-.06-.034-.086-.055s-.045-.046-.07-.067zm1.48.84a5.986 5.986 0 0 0 .674.2l.175.038-.05-.01-.043-.008-.043-.01-.043-.01-.07-.017-.068-.017-.07-.02-.068-.018-.122-.036-.12-.04-.118-.04zm.862.24l.153.03-.062-.01zm.178.034l.158.026h-.03l-.107-.017zm.772 9.982a3.984 3.984 0 0 1-.214-.462c-.016-.042-.025-.084-.04-.126a3.918 3.918 0 0 0 .25.588zm-.3-.753c-.018-.063-.043-.123-.057-.185-.025-.1-.037-.21-.052-.316a3.5 3.5 0 0 0 .097.5zm2.027 2.53a5.607 5.607 0 0 1-.516-.367 5.613 5.613 0 0 0 .515.368zm-.05-17.744l-.15-.048-.156-.045-.158-.04-.16-.038a6.26 6.26 0 0 0-1.313-.143 5.92 5.92 0 0 0-1.245.127 5.072 5.072 0 0 0-1.115.37 3.9 3.9 0 0 0-.915.595l-6.085-1.354a2.14 2.14 0 0 0-.252-.84 2.734 2.734 0 0 0-.582-.73 3.73 3.73 0 0 0-.87-.58 4.977 4.977 0 0 0-1.123-.382l-.136-.034-.14-.025-.138-.022-.14-.018-.95-3.635c.08-.033.158-.068.234-.1s.174-.088.257-.135.163-.1.24-.148.15-.1.22-.16l.09-.072.084-.074.08-.076.077-.078.056-.062.054-.063.046-.065.053-.068.034-.048.032-.05.03-.048.03-.05.005-.01.006-.01.006-.01.005-.01.03-.057.027-.056.025-.057.023-.057.02-.056.018-.056.016-.056.012-.056.012-.057.01-.058.006-.056.005-.056v-.074-.076l-.006-.2v.044a1.492 1.492 0 0 0-.055-.4 1.64 1.64 0 0 0-.087-.21l4.126-2.24.062.017.063.018.063.016.07.02.057.01.054.013.055.01.054.012.036.006.034.006.034.006.032.006.086.014.084.016.086.01.086.01.086.01.085.007.087.003.085.005h.631l.092-.005.1-.008.1-.01.1-.012.1-.013.132-.02.13-.023.128-.025.14-.028q.217-.05.42-.118c.135-.044.265-.094.39-.148a3.738 3.738 0 0 0 .352-.176 3.08 3.08 0 0 0 .312-.2l5.3 1a1.682 1.682 0 0 0 .21.49 2.388 2.388 0 0 0 .382.458 3.372 3.372 0 0 0 .535.41 4.5 4.5 0 0 0 .674.346l.112.044.114.043.117.04.12.038.1.03.1.028.1.026.1.025.057.012.066.013.058.012.06.012.035.006.033.008h.036l.036.006.09.015.092.013.09.012.09.01h.069l1.772 3.45a3.4 3.4 0 0 0-.375.21 2.732 2.732 0 0 0-.4.323 2.2 2.2 0 0 0-.306.377 1.888 1.888 0 0 0-.2.43 1.746 1.746 0 0 0-.08.424v-.042l-.02.208a1.774 1.774 0 0 0 0 .363 1.937 1.937 0 0 0 .078.362 2.248 2.248 0 0 0 .147.356c.036.072.084.14.128.21zm-7.125-12.083a5.018 5.018 0 0 0 .92-.26c-.074.03-.146.06-.223.085q-.2.067-.42.118l-.127.028-.13.025zm1.018-.3c.092-.038.18-.08.265-.124-.065.032-.128.067-.2.1-.02.01-.043.017-.065.027zm7.112 1.907c.044.03.09.057.135.084-.023-.014-.053-.024-.075-.038s-.038-.028-.06-.042zm.723.383l.02.01h-.007zm.022.01a5.758 5.758 0 0 0 1.09.32l.143.026-.034-.006h-.04l-.036-.007-.036-.007-.06-.012-.058-.012-.058-.013-.052-.015-.1-.025-.1-.026-.1-.028-.1-.03-.12-.038-.117-.04-.12-.048zm1.39.37l.128.017h-.01l-.09-.012zm.823 6.306c-.024-.06-.054-.117-.072-.176-.01-.04-.014-.078-.024-.117a2.092 2.092 0 0 0 .096.296zm-.128-.436c-.006-.03-.018-.063-.025-.1a1.778 1.778 0 0 1 0-.2 1.81 1.81 0 0 0 .025.3zm1.1-10.055l-.136-.037-.14-.033-.14-.03-.143-.03a6.34 6.34 0 0 0-1.124-.1 5.768 5.768 0 0 0-1.052.095 4.527 4.527 0 0 0-.924.27 3.03 3.03 0 0 0-.737.432l-5.167-.952a1.46 1.46 0 0 0-.258-.606 2.308 2.308 0 0 0-.54-.53 3.623 3.623 0 0 0-.78-.422 5.113 5.113 0 0 0-.985-.273l-.125-.02-.125-.02-.125-.015-.125-.013-1.05-2.583c.054-.02.11-.04.16-.064q.112-.047.216-.1t.2-.11q.095-.057.18-.12l.07-.052.068-.054.063-.056.06-.057.044-.044.043-.046.04-.047.036-.048.024-.035.024-.036.023-.036.022-.037v-.027l.02-.04.02-.043.017-.042.014-.04.033-.044.01-.04.01-.042.008-.04.005-.037v-.291V18.382l-.005.036-.008.04v.016a.944.944 0 0 0 .02-.295 1 1 0 0 0-.07-.288 1.236 1.236 0 0 0-.075-.13l3.318-1.616.06.013.06.012.06.013.06.012.047.01.047.008.047.01.05.007h.12l.074.01.075.01.074.007.075.006.073.006.074.005H71.81l.09-.006.09-.006.087-.01.088-.01.112-.014.11-.017.11-.02.107-.02c.125-.026.246-.055.362-.09s.227-.07.332-.112a3.134 3.134 0 0 0 .3-.134 2.437 2.437 0 0 0 .26-.155l4.595.74a1.238 1.238 0 0 0 .2.365 2.014 2.014 0 0 0 .348.344 3.14 3.14 0 0 0 .483.307 4.422 4.422 0 0 0 .6.257l.1.033.1.03.1.03.1.03.087.02.087.022.088.018.09.046.05.01.05.01.05.008.052.01.03.004h.094l.078.01.078.01.078.01.078.008h.076l1.635 2.482a2.814 2.814 0 0 0-.272.136 2.084 2.084 0 0 0-.317.232 1.52 1.52 0 0 0-.24.27 1.188 1.188 0 0 0-.152.306 1.046 1.046 0 0 0-.045.278v-.066l-.02.192a1.07 1.07 0 0 0 0 .274 1.228 1.228 0 0 0 .073.274 1.544 1.544 0 0 0 .14.27c.03.046.07.09.105.137zm-6.74-8.72a4.568 4.568 0 0 0 .78-.2c-.066.024-.13.048-.2.068-.116.034-.237.064-.36.09l-.108.02-.11.02zm7.015 1.165a4.2 4.2 0 0 0 .7.318 4.423 4.423 0 0 1-.6-.255c-.043-.02-.07-.043-.1-.063zm1.8.578l.1.013h-.038zm.124.016l.106.014h-.017l-.078-.01zm1.252 4.925a2.024 2.024 0 0 1-.2-.26l-.015-.03a1.967 1.967 0 0 0 .21.29zm-.266-.384a1.54 1.54 0 0 1-.075-.144c-.008-.02-.01-.04-.016-.06a1.428 1.428 0 0 0 .086.205zm-.122-.317c-.008-.034-.022-.067-.027-.1s0-.063 0-.095a1.114 1.114 0 0 0 .024.195zm1.67 1.552c-.124-.053-.244-.11-.357-.168.114.06.235.115.36.168zm-.06-3.3h.008zM82.67 14.71l-.114-.026-.117-.024-.12-.022-.12-.02a6.393 6.393 0 0 0-.968-.076 5.683 5.683 0 0 0-.9.068 4.234 4.234 0 0 0-.782.2 2.572 2.572 0 0 0-.616.315L74.4 14.41a1.14 1.14 0 0 0-.263-.448 2.15 2.15 0 0 0-.5-.393 3.65 3.65 0 0 0-.7-.313 5.26 5.26 0 0 0-.864-.206l-.106-.014-.104-.012-.106-.012-.106-.01-1.067-1.933c.035-.013.07-.025.1-.038q.09-.036.176-.075t.16-.082q.078-.043.148-.09l.058-.04.055-.04.053-.042.05-.043.034-.034.033-.035.03-.035.03-.036.02-.028.02-.027.017-.028.016-.028V10.345l.016-.032.013-.032.012-.03.01-.033.01-.03.007-.032.006-.03V10.052l.007-.172V9.965a.627.627 0 0 0 0-.227.74.74 0 0 0-.065-.224c-.02-.03-.048-.057-.068-.09l2.75-1.214.064.014.066.013.067.013.067.012.042.007.04.008.042.006.043.006h.105l.065.008.068.026h.066l.065.006H75.97l.077-.006h.153l.1-.01.1-.014.095-.015.093-.016q.16-.03.31-.07t.285-.086c.09-.032.175-.066.254-.1a2.046 2.046 0 0 0 .22-.12l4.078.57a1.006 1.006 0 0 0 .194.282 1.838 1.838 0 0 0 .32.264 3.044 3.044 0 0 0 .436.235 4.412 4.412 0 0 0 .536.2l.078.014.09.023.09.023.095.018.076.02.078.016.078.015.08.014.043.006.043.007.045.007.045.007H84.176l.07.008.068.007.068.007.07.005h.078L86 11.495c-.072.03-.147.06-.21.094a1.733 1.733 0 0 0-.272.175 1.147 1.147 0 0 0-.2.205.812.812 0 0 0-.123.233.68.68 0 0 0-.027.2.672.672 0 0 1 0-.067l-.022.176a.7.7 0 0 0 .007.216.85.85 0 0 0 .072.215 1.18 1.18 0 0 0 .134.212c.024.032.058.062.087.094zm2.9-1.528a1.692 1.692 0 0 1-.192-.2l-.01-.018a1.64 1.64 0 0 0 .2.216zm-.25-.3a1.16 1.16 0 0 1-.076-.12c-.006-.012-.007-.024-.012-.036a1.085 1.085 0 0 0 .086.16zm-.12-.242a.848.848 0 0 1-.03-.09v-.055a.766.766 0 0 0 .03.145zm11.81-5.67l.07.054c-.012-.01-.03-.018-.042-.028l-.028-.025zm2.44.87l.094.01h-.022l-.07-.008zm2.744 3.836q.147.072.31.138-.164-.066-.31-.138zm-.12-.06a3.657 3.657 0 0 1-.36-.212 3.65 3.65 0 0 0 .358.212zm.178-4.37l-.025.04-.027.038-.032.037-.034.036a.655.655 0 0 0 .134-.175zm-.12.15a.955.955 0 0 1-.1.078 1.256 1.256 0 0 1-.112.072 1.09 1.09 0 0 0 .21-.15zm-.21.152q-.06.035-.13.067t-.145.06a1.81 1.81 0 0 0 .275-.127zm-2.164.32H99.676l.09.008h-.01zm-.1-.007l-.06-.005h-.024zm-.316-.036l.1.013h-.105l-.037-.013-.045-.006-.045-.007-.045-.006-.085-.017-.08-.015-.08-.015-.077-.016-.095-.016-.094-.02-.092-.024-.088-.023a6.848 6.848 0 0 0 .868.167zm-.868-.17a5.61 5.61 0 0 1-.57-.186c-.036-.014-.063-.03-.1-.045a5.36 5.36 0 0 0 .67.232zm-.84-.31c-.07-.032-.15-.063-.216-.1s-.112-.073-.17-.11a3.36 3.36 0 0 0 .386.213zm-8.516-2.97zm.09-1.914l-.03.033-.035.03-.037.032-.035.026a.81.81 0 0 0 .16-.145zm-.138.123q-.048.034-.1.065c-.035.02-.073.04-.112.058a1.38 1.38 0 0 0 .212-.123zm-.22.127q-.063.03-.13.055t-.144.05a2.23 2.23 0 0 0 .273-.105zm-1.54.284c-.16 0-.323 0-.49-.013h-.082l.08.007c.17.005.333.01.493.007zm-.88-.05l.1.01h-.098l-.04-.004-.04-.005-.043-.02h-.04l-.07-.013-.07-.012-.07-.012-.07-.014-.082-.017-.08-.018-.08-.016-.08-.02a5.926 5.926 0 0 0 .76.14zm-5.777-1.37a1.225 1.225 0 0 0 .107-.07 1.21 1.21 0 0 1-.106.07 1.743 1.743 0 0 1-.19.1c-.07.03-.145.057-.225.082l-.054.015a2.183 2.183 0 0 0 .467-.197zm-.513.206c-.05.015-.1.03-.154.043-.088.02-.18.04-.277.055l-.083.013-.083.012a4.063 4.063 0 0 0 .596-.123zm-.6.122l-.085.01-.083.012H79.3l-.07.005H78.822a5.68 5.68 0 0 0 .724-.03zm-1.5 0a6.292 6.292 0 0 0 .774.048h-.498l-.06-.026-.057-.01-.06-.005h-.136l-.037-.006-.037-.022-.038-.006h-.026l.085.013zm-.286-.043h-.027l-.052-.01zm-1.644-.853a.538.538 0 0 0 .06.114c-.01-.014-.025-.03-.033-.045a.48.48 0 0 1-.027-.068zm.09.154a.908.908 0 0 0 .13.14 1.578 1.578 0 0 0 .22.15 1.57 1.57 0 0 1-.217-.15.978.978 0 0 1-.11-.11c-.015-.01-.023-.02-.023-.03zm-5.665 1.553zm-.066.057zm-.062.064zm-3.716-.036c-.07.035-.143.068-.222.1s-.163.06-.25.086L66.16 3a2.943 2.943 0 0 0 .532-.202zm-.583.214c-.055.012-.11.03-.165.044-.1.022-.194.04-.3.057l-.084.01-.088.013h-.006a4.807 4.807 0 0 0 .643-.123zm-2.172.122a5.975 5.975 0 0 0 .775.05h-.504l-.06-.026-.06-.006-.058-.007h-.093l-.04-.016-.038-.006-.037-.006-.037-.006h-.02l.078.012zm-.283-.045h-.02l-.05-.01zm-1.44-.832a.42.42 0 0 1-.008-.077.44.44 0 0 0 .038.164.47.47 0 0 1-.03-.086zm.074.166a.568.568 0 0 1-.043-.078.642.642 0 0 0 .1.16.722.722 0 0 1-.058-.082zM57.647 5.66h-.088zm-.387-.036l.092.012h-.092l-.038-.006-.04-.006-.037-.006-.038-.006-.07-.028-.066-.013-.064-.013-.064-.014-.076-.02-.075-.02-.07-.02-.07-.02a4.31 4.31 0 0 0 .71.16zM55.867 4.1zm-.184.2zM52 4.11c.055-.025.106-.05.156-.078q-.074.04-.155.077c-.08.036-.166.07-.255.1s-.184.062-.282.09l-.063.024a3.894 3.894 0 0 0 .6-.214zm-.66.226c-.06.015-.12.032-.182.045-.1.024-.21.044-.32.06l-.095.015-.095.013h-.004a5.626 5.626 0 0 0 .695-.132zm-.7.133l-.09.01-.1.01-.076.007-.075.006H49.86a6.3 6.3 0 0 0 .783-.034zm-.786.047h-.508l-.058-.006-.06-.005-.058-.03h-.091l-.038-.016-.04-.007h-.013l.09.01a5.628 5.628 0 0 0 .78.054zm-1.123-.115l.077.016-.028-.006-.05-.01a3.282 3.282 0 0 1-.364-.1 3.284 3.284 0 0 0 .37.1zm-1.122-.644a.478.478 0 0 1-.02-.048.452.452 0 0 1-.012-.05V3.64a.49.49 0 0 0 .06.167q-.013-.023-.024-.047zM44.7 6.678c-.054.024-.11.05-.167.073s-.124.05-.19.074a3.865 3.865 0 0 0 .357-.147zm-.36.146q-.1.034-.196.064t-.21.06c.142-.036.277-.078.405-.124zm-4.223-.485a.568.568 0 0 0 .06.125c-.007-.01-.018-.018-.024-.027a.53.53 0 0 1-.036-.1zm.188.284a.776.776 0 0 1-.064-.076.923.923 0 0 0 .113.11c-.014-.016-.035-.026-.048-.034zm.23.163c-.03-.022-.05-.042-.078-.063a1.59 1.59 0 0 0 .16.093c-.025-.01-.057-.02-.08-.034zm.444.185l-.07-.022-.066-.026c-.033-.012-.057-.027-.088-.04a2.624 2.624 0 0 0 .3.11h-.01zm.6.13h-.049l-.037-.018-.04-.006-.037-.007-.037-.006-.067-.013-.064-.013-.064-.013-.06-.015-.063-.018a3.958 3.958 0 0 0 .47.1l.082.012H41.6zm.048.002l.072.01h-.012zm.12.014h-.026l.06.006zm.135.013h-.01l-.063-.006h-.01l.083.007zm.656 1.7h-.01zm.15 2.617H42.252l-.07-.023h-.066l-.066-.01-.066-.008-.065-.01H41.815l-.04-.006-.042-.007h-.01l.092.016a5.5 5.5 0 0 0 .876.05zm-1.078-.106H41.6l-.057-.016h-.012zm-.174-.04l.084.024-.032-.008-.052-.013a3.047 3.047 0 0 1-.4-.132 3.05 3.05 0 0 0 .4.133zm-.492-.176a2 2 0 0 1-.22-.117 1.984 1.984 0 0 0 .22.117zm-4.43 3.088c-.06.03-.12.06-.183.087l-.236.1h-.008c.148-.058.29-.12.426-.187zm-.444.192c-.073.027-.148.054-.224.08s-.17.053-.258.077c.166-.044.327-.097.482-.155zm-4.6-.41c0-.007 0-.014-.008-.02a.917.917 0 0 0 .17.227l-.014-.01a.924.924 0 0 1-.148-.195zm.366.37a1.318 1.318 0 0 1-.148-.12 1.46 1.46 0 0 0 .216.156c-.02-.012-.048-.022-.068-.035zm.43.21l-.075-.028-.07-.03c-.04-.018-.072-.04-.11-.058a2.367 2.367 0 0 0 .342.147h-.01zm.657.17h-.054l-.04-.02-.044-.008-.042-.008-.044-.007-.072-.016-.07-.018-.07-.02-.066-.02-.067-.02a3.675 3.675 0 0 0 .514.127l.087.015h-.004zm.054.007h-.02l.086.013zm.08.013l.07.01h-.025zm.108.013h-.02l.083.01a5.7 5.7 0 0 0 .585.026 5.7 5.7 0 0 1-.584-.027zm-2.26 4.71c-.007-.013-.01-.026-.015-.038a1.068 1.068 0 0 0 .183.266l-.01-.008a1.094 1.094 0 0 1-.16-.22zm.392.422a1.473 1.473 0 0 1-.185-.16 1.6 1.6 0 0 0 .254.2c-.024-.014-.05-.024-.07-.04zm.457.244l-.08-.034-.077-.035c-.045-.02-.08-.047-.12-.07a2.46 2.46 0 0 0 .373.175h-.01zm1.53.272h-.235l-.076-.005-.076-.013-.075-.007-.075-.008-.075-.01-.074-.01-.072-.01h-.03l-.028-.006-.03-.005-.028-.004-.047-.01-.045-.012-.046-.01-.045-.01-.08-.02-.077-.02-.073-.026-.072-.023-.072-.025a3.72 3.72 0 0 0 .557.15 5.323 5.323 0 0 0 .984.09h-.11zm1.034-.062l-.128.017-.1.01-.1.01-.1.008-.1.007H33.4a6.662 6.662 0 0 0 1.024-.08zm.817-.163c-.142.036-.286.07-.43.1l-.13.023-.127.02h-.02a6.84 6.84 0 0 0 .945-.218c-.075.03-.157.056-.238.078zm.81-.274q-.19.08-.394.148l-.1.03a5.61 5.61 0 0 0 .86-.35q-.175.096-.366.176zm4.922 1.34c-.01-.018-.01-.037-.02-.055a1.12 1.12 0 0 0 .056.11c-.006-.015-.028-.032-.037-.05zm.2.285c-.02-.02-.03-.043-.046-.064.027.033.053.066.084.1-.014-.01-.03-.02-.04-.032zm.22.194c.034.026.064.053.1.078l-.026-.015c-.03-.017-.05-.04-.075-.06zm.433.267c.01.006.02.013.032.018h-.005c-.012-.004-.02-.01-.03-.014zm.377.158l-.094-.032-.09-.034-.09-.036-.076-.034a3.367 3.367 0 0 0 .4.15zm.645.156l-.03-.005-.032-.006-.03-.006-.03-.006-.05-.01-.048-.01-.048-.01-.047-.012-.084-.02-.082-.023-.08-.023-.022-.007a4.32 4.32 0 0 0 .463.115l.115.022.105.016h-.024zm.155.02h-.027l.1.014zm.188.023h-.033l-.07-.008.115.008h-.012zm-1.97 5.543a1.352 1.352 0 0 0 .11.316c-.006-.012-.016-.022-.022-.034a1.34 1.34 0 0 1-.088-.282zm.307.62a1.573 1.573 0 0 1-.115-.177 1.656 1.656 0 0 0 .173.232c-.018-.018-.042-.034-.058-.054zm.322.3c-.05-.037-.084-.08-.128-.12a2.26 2.26 0 0 0 .236.19c-.035-.02-.077-.04-.11-.064zm.61.35l-.1-.042-.092-.045c-.048-.024-.084-.054-.128-.08a3.12 3.12 0 0 0 .433.215l-.012-.004zm1.872.356h-.272l-.087-.012h-.086l-.084-.01-.086-.01-.087-.01-.086-.013-.085-.012-.085-.015-.034-.006-.036-.007-.034-.007-.033-.01-.055-.01-.054-.013-.053-.013-.052-.013-.092-.025-.09-.028-.088-.028-.086-.03-.087-.033a4.273 4.273 0 0 0 .658.194 5.575 5.575 0 0 0 1.138.115h-.04zm1.067-.08l-.143.02-.11.014-.112.012-.11.01-.112.012-.1.006h-.334a6.474 6.474 0 0 0 1.157-.1zm.9-.213c-.157.05-.317.092-.48.13l-.14.03-.14.027a6.26 6.26 0 0 0 1.04-.287c-.094.04-.183.076-.277.105zm.883-.36q-.2.106-.426.2c-.032.014-.066.024-.1.036a4.985 4.985 0 0 0 .914-.456c-.12.08-.25.16-.386.225zm5.585 1.048v.058c0-.02-.013-.04-.015-.06zm.1.425c.008.02.01.042.02.062l-.007-.012c-.01-.01-.008-.028-.015-.044zm.286.5c-.01-.012-.012-.025-.02-.037.026.034.058.067.088.1-.018-.02-.05-.038-.07-.06zm.42.4c-.025-.02-.04-.043-.066-.064.04.034.08.067.123.1-.018-.01-.04-.02-.058-.032zm.99.517l-.113-.04-.11-.045-.105-.046-.1-.047a4.19 4.19 0 0 0 .487.2zm.72.192l-.035-.007-.036-.007-.036-.007-.058-.013-.058-.006-.058-.018-.056-.014-.1-.027-.1-.03-.1-.03-.03-.01a4.988 4.988 0 0 0 .55.15l.138.026zm.127.022l-.09-.016h-.007l.125.02zm.308.043h-.037l-.09-.012-.088-.014-.033-.005.124.017.14.017h-.016zm-.48 8.233a2.955 2.955 0 0 1-.28-.3 2.95 2.95 0 0 0 .28.303zm-.728-1.058q-.028-.083-.05-.17c-.01-.044-.02-.09-.027-.135a2.14 2.14 0 0 0 .14.47 2.438 2.438 0 0 0 .273.463 2.444 2.444 0 0 1-.272-.462q-.036-.08-.064-.162zm-4.97 8.907q-.16.1-.33.2t-.352.18a5.948 5.948 0 0 0 .68-.377zm-3.328.992a5.916 5.916 0 0 1-.91-.05h-.044l-.108-.017.152.017a5.92 5.92 0 0 0 .908.052zm-1.392-.14l-.03-.007-.043-.01-.042-.01-.043-.013-.068-.018-.067-.02-.066-.02-.066-.02-.116-.04-.114-.04-.11-.042-.035-.014a4.738 4.738 0 0 0 .64.217zm-2.548-3.88v-.005zm-.106.314v.008zm-4.356-3.992v.118l-.007.087c0 .03-.005.06-.01.09l-.013.087v.087a2.27 2.27 0 0 0 .03-.467zm-1.776 2.77c.11-.077.216-.158.32-.24-.1.082-.21.162-.32.24q-.24.168-.5.317l-.044.023a6.38 6.38 0 0 0 .543-.338zm-.74.44c-.1.052-.2.108-.3.156-.032.014-.065.025-.1.04.135-.06.267-.126.398-.194zm1.42-10.685l-.1.086-.106.082-.11.08-.1.07a4.706 4.706 0 0 0 .494-.38zm1.034-1.95v.225s0 .047-.006.07-.006.047-.01.07l-.01.066a1.573 1.573 0 0 0 .02-.483l.006.055zm-.025.432v.012q-.005.03-.013.063t-.016.063q-.008.032-.018.064t-.02.064l-.023.06-.026.062-.027.06-.03.062v.008a1.985 1.985 0 0 0 .174-.516zm-.52 1.034a2.775 2.775 0 0 0 .344-.52l-.026.05-.033.06-.035.06-.038.06-.042.068-.043.06-.045.062-.048.06-.01.012-.008.01-.01.012-.008.01-.046.055-.047.053-.05.053-.05.053-.07.07-.072.07-.075.067a3.752 3.752 0 0 0 .412-.424zm-.913.806l-.01.006q-.132.088-.273.17t-.278.15a5.675 5.675 0 0 0 .56-.325zm-.57.332q-.147.076-.3.145T35 34.86a6.5 6.5 0 0 0 .617-.277zm-.805.336c-.184.065-.37.13-.56.18.19-.05.374-.114.56-.176zm-2.956.372H31.804l-.06-.008.13.016zm-.416-.068h-.03l-.036-.008-.035-.008-.04-.01-.056-.014-.056-.014-.055-.015-.054-.015-.1-.03-.094-.03-.086-.033-.03-.012a4 4 0 0 0 .53.162zm-.6-4.027l-.01.007-.01.007.01-.006zm-.288.206zm-.252.22h-.006l.005-.004zm-.442.475zm-.158.226zm-.13.237zm-3.326-3.33q0 .03.005.058t0 .078q0 .04 0 .08t-.007.08v.027a1.312 1.312 0 0 0 0-.33v.01zm-.005.332l-.007.043q-.005.032-.012.065t-.014.065q-.01.033-.018.066t-.022.067v.042a1.6 1.6 0 0 0 .07-.346zm-.195.578a2.385 2.385 0 0 1-.135.223 2.4 2.4 0 0 0 .133-.22zm-1.324 1.328q-.142.092-.293.178c-.153.087-.312.168-.476.244s-.332.147-.504.212c-.036.014-.074.024-.11.037a7.142 7.142 0 0 0 1.09-.495c.1-.054.197-.114.293-.176zm-2.653 1.016a7.864 7.864 0 0 0 1.17-.31c-.106.036-.212.075-.32.107-.18.054-.36.1-.542.142l-.154.033-.154.03-.155.025-.154.023-.12.015-.118.013-.072.008c.205-.017.412-.044.62-.083zm-1.244.114h-.327l-.09-.006-.087-.007-.087-.01-.087-.01-.087-.01-.087-.014-.084-.016-.09-.02-.033-.008-.033-.007-.033-.008-.03-.007-.054-.013-.052-.013h-.018l.122.03a5.1 5.1 0 0 0 1.153.12zm-1.523-.232l-.035-.012-.065-.03zm-.635-.326a1.715 1.715 0 0 1-.324-.292 1.713 1.713 0 0 0 .322.29zm-.335-.308a1.306 1.306 0 0 1-.193-.334 1.3 1.3 0 0 0 .19.333zm-6.15 5.062a4.725 4.725 0 0 0 .453-.477l-.028.034-.056.066-.06.065-.06.067-.065.066-.067.067-.07.067-.012.012-.013.01-.013.013-.013.012-.064.058-.066.058-.067.058-.068.057-.1.076-.1.076-.1.074-.007.005a6.18 6.18 0 0 0 .575-.46zm-1.908 1.237q-.18.084-.364.16t-.372.14c-.28.1-.564.187-.85.258.287-.072.572-.158.852-.258.246-.088.494-.19.735-.3zm-4.14.765h-.045l-.077-.01.136.018zm-1.832-.94a1.3 1.3 0 0 1-.077-.147 1.383 1.383 0 0 0 .27.393c-.03-.03-.06-.06-.086-.093a1.394 1.394 0 0 1-.107-.152zm.65.587l-.09-.05-.084-.055-.08-.057a1.725 1.725 0 0 1-.156-.13c-.01-.01-.017-.02-.026-.03a1.89 1.89 0 0 0 .448.328zm.75.274l-.034-.008-.036-.008-.03-.01-.055-.014-.054-.016-.052-.016-.054-.02-.09-.03-.087-.03-.083-.04-.08-.037-.08-.04a2.93 2.93 0 0 0 .632.24l.132.037zm.12.026l-.088-.018.122.025zm.18.033l-.09-.015-.032-.006.122.022zm-.57 4.294l.017-.007h.02-.02l-.018.005zM.88 49.38q-.05-.032-.097-.066t-.093-.068l-.09-.072q-.068-.06-.13-.123c-.02-.026-.042-.05-.064-.078a2.03 2.03 0 0 0 .49.415zm1.9.5h-.11l-.106-.016-.106-.01-.1-.01-.1-.013-.1-.014-.1-.017-.1-.02-.1-.02-.1-.024-.048-.012-.038-.01-.038-.01-.034-.01-.06-.018-.06-.02-.06-.02-.056-.02-.1-.04-.1-.043-.092-.045-.088-.047c-.028-.016-.056-.032-.084-.05a2.957 2.957 0 0 0 .7.3 4.785 4.785 0 0 0 1.35.183H2.9zm.73-.02l-.128.008-.126.007h-.298a6.806 6.806 0 0 0 .738-.04H3.66zm.79-.11l-.2.033-.15.023-.147.02-.1.01c.252-.027.508-.067.766-.12zm.585-.13l-.2.047-.2.043h-.013c.206-.043.414-.1.62-.158-.066.023-.138.05-.21.072zm.684-.2c-.058.018-.115.032-.17.05.15-.048.3-.1.454-.16-.098.033-.192.073-.288.106zm.675-.258c-.036.015-.073.027-.11.042.163-.066.322-.14.482-.214-.126.055-.25.116-.374.17zm.655-.31l-.054.026c.234-.117.463-.242.685-.376q-.305.187-.63.35zm6.488 3.672c-.03-.05-.053-.1-.077-.158a2.142 2.142 0 0 0 .244.4l-.014-.016a2.155 2.155 0 0 1-.152-.226zm.336.444c-.053-.054-.1-.112-.146-.17a2.363 2.363 0 0 0 .363.368 2.468 2.468 0 0 1-.216-.203zm.534.418q-.057-.034-.11-.07t-.107-.074l-.1-.076a2.853 2.853 0 0 0 .494.317l-.06-.03-.116-.072zm.913.376l-.04-.01-.04-.013-.042-.016-.066-.02-.064-.02-.063-.023-.062-.022-.11-.043-.106-.046-.1-.05-.03-.016a3.637 3.637 0 0 0 .6.24q.078.024.16.044zm.042.01l.145.035-.04-.01zm.21.05l-.03-.008.145.03h-.01zm.135.025l.156.025a5.678 5.678 0 0 0 .938.052 5.678 5.678 0 0 1-.937-.052h-.076zm-.117 5.902l.023-.007-.023.006-.018.006zm-5.424 8.06c-.016-.02-.024-.044-.037-.066a2.793 2.793 0 0 0 .204.308c-.01-.015-.024-.028-.035-.043q-.072-.098-.134-.2zm.284.387c-.027-.03-.052-.064-.078-.1a2.858 2.858 0 0 0 .266.29l-.018-.016q-.088-.08-.17-.173zm.4.378q-.06-.048-.12-.1c-.023-.022-.05-.05-.08-.07a3.063 3.063 0 0 0 .34.273l-.015-.01-.125-.093zm.37.25l-.11-.068c-.037-.023-.072-.047-.107-.07a3.394 3.394 0 0 0 .394.232l-.06-.032zm1.33.47l-.124-.024-.122-.026-.12-.03-.12-.035-.047-.015-.047-.015-.046-.015-.05-.01-.075-.028-.075-.028-.075-.035-.07-.03-.125-.057-.04-.024a3.883 3.883 0 0 0 .46.193 4.587 4.587 0 0 0 .786.2zm.772.083l-.134-.006-.133-.01-.128-.012-.127-.015-.126-.018h-.01a5.56 5.56 0 0 0 .84.066H13.3zm.868-.03l-.15.014-.15.01-.148.006H13.364a6.68 6.68 0 0 0 .876-.054h-.03zm.924-.15q-.114.025-.228.047l-.175.032-.173.028-.132.018a7.827 7.827 0 0 0 .892-.17zm.685-.187q-.115.037-.23.07t-.227.062l-.03.007c.242-.062.483-.143.724-.226-.087.027-.162.062-.24.087zm.778-.286c-.07.03-.14.05-.208.076.176-.07.35-.145.523-.225-.104.05-.208.104-.315.15zm.766-.36c-.043.022-.09.04-.132.06.184-.092.364-.2.543-.3-.137.08-.27.165-.41.238zm.738-.43c-.02.013-.043.024-.063.037.26-.164.517-.34.762-.528q.237-.183.462-.38c-.15.13-.3.257-.46.38q-.34.26-.702.49zm8.248 5.09c-.01-.02-.017-.04-.026-.06a3.755 3.755 0 0 0 .34.556c-.025-.033-.054-.064-.078-.1a3.743 3.743 0 0 1-.236-.396zm.52.764c-.045-.05-.082-.106-.123-.16a3.764 3.764 0 0 0 .463.5h-.005a3.8 3.8 0 0 1-.335-.34zm.75.655q-.073-.05-.144-.1t-.14-.107l-.123-.1a4 4 0 0 0 .64.457l-.083-.053-.147-.097zm1.47.632l-.132-.034-.13-.036-.05-.016-.052-.016-.05-.017-.05-.017-.083-.03-.08-.03-.08-.032-.08-.033L28 74.75l-.135-.066-.13-.07-.038-.022a4.492 4.492 0 0 0 .763.347 5 5 0 0 0 .55.155zm.533.1l-.135-.02-.134-.023-.134-.027-.032-.007a5.41 5.41 0 0 0 .57.094zm.556.05l-.143-.008-.14-.01-.127-.014q.29.032.585.034h-.033zm.6-.007l-.157.007h-.256q.293 0 .59-.023h-.02zm1.26-.194q-.115.03-.232.053l-.18.036-.178.03-.18.027-.178.02-.128.013a7.114 7.114 0 0 0 1.2-.213zm.694-.206q-.115.04-.23.076t-.23.07l-.086.02a7.957 7.957 0 0 0 1.018-.36c-.16.065-.314.138-.474.193zm1.63-.777a8.493 8.493 0 0 1-.8.436c-.04.018-.08.03-.12.05a8.472 8.472 0 0 0 1-.542c-.028.017-.054.04-.083.056zm.75-.518c-.152.117-.312.22-.47.325a8.494 8.494 0 0 0 .752-.57c-.097.08-.186.168-.285.247zm1.18-1.115q-.077.09-.158.177t-.164.173q-.083.085-.17.168c-.053.052-.114.1-.17.148a8.114 8.114 0 0 0 .8-.83l-.14.163zm1.285-2.093q-.026.064-.052.127t-.055.13q-.03.064-.06.13t-.062.13q-.03.064-.065.13t-.07.13l-.013.022-.013.023-.014.023-.013.023-.066.116-.07.114-.07.112-.073.11q-.05.077-.1.152t-.114.15q-.055.074-.11.147t-.116.145l-.01.013a7.515 7.515 0 0 0 .726-1.056 6.67 6.67 0 0 0 .44-.936zm.21-.64q-.018.064-.037.128t-.04.13q-.02.064-.04.128t-.046.127l-.02.05a5.773 5.773 0 0 0 .263-.913c-.006.03-.01.058-.018.087q-.014.07-.03.136t-.035.127zm.113-.532q-.01.067-.023.134l-.008.038a5.035 5.035 0 0 0 .094-.883v.136s-.005.1-.01.146l-.012.148s-.01.1-.018.15-.018.087-.025.13zm0-1.52l.005.032.005.032v.033q.012.084.02.17t.016.175q.005.088.007.177t0 .18v.002a4.452 4.452 0 0 0-.065-.84zm7.2-4.99l-.088-.04a4.434 4.434 0 0 1-.77-.455 4.44 4.44 0 0 0 .77.456l.146.064zm.18.074l-.09-.036h-.012l.14.054zm.167.062l-.08-.028-.024-.01.148.054zm.916.233l-.124-.02-.124-.026-.124-.03-.122-.03-.048-.013-.048-.012-.048-.014-.048-.014-.078-.024-.077-.025h-.014q.084.03.17.055a5.544 5.544 0 0 0 .8.176zm.884.078h-.13l-.128-.006-.13-.01-.124-.01-.124-.014-.126-.014a5.932 5.932 0 0 0 .82.06h-.06zm.844-.047l-.16.018-.138.012-.14.01-.138.005H47.143a6.32 6.32 0 0 0 .818-.052zm.675-.118q-.1.023-.2.043l-.158.03-.158.024-.107.013a6.64 6.64 0 0 0 .8-.156l-.177.045zm.6-.167q-.1.032-.2.062t-.2.056h-.014c.212-.055.417-.128.622-.2-.07.026-.14.06-.208.083zm.67-.26c-.054.024-.11.04-.166.064.148-.063.293-.133.436-.2-.094.04-.18.093-.273.134zm.637-.33c-.033.02-.07.035-.1.054.15-.086.294-.18.436-.276-.118.074-.225.153-.343.22zm.59-.392c-.015.01-.033.02-.048.032a6.078 6.078 0 0 0 .582-.482 6.05 6.05 0 0 1-.54.45zm8.046 1.894v-.073a4.387 4.387 0 0 0 .066.6 4.38 4.38 0 0 1-.07-.527zm.178 1c-.032-.11-.054-.222-.078-.333a4.494 4.494 0 0 0 .143.506c-.025-.055-.05-.112-.07-.17zm.438 1l-.015-.03a4.874 4.874 0 0 0 .383.564 4.88 4.88 0 0 1-.372-.53zm.677.9c-.07-.073-.128-.15-.19-.227.09.107.19.21.29.31-.035-.028-.076-.05-.105-.08zm.9.756zm.65.374q-.086-.042-.17-.086t-.163-.09q-.08-.047-.16-.1t-.152-.1a5.624 5.624 0 0 0 .73.41zm1.387.48l-.133-.03-.14-.032-.052-.014-.048-.013-.052-.015-.052-.015-.09-.023-.085-.027-.083-.03-.083-.03-.148-.055-.145-.06-.142-.063-.043-.022a5.957 5.957 0 0 0 .817.31q.28.084.56.14zm.53.09l-.13-.02-.14-.013-.132-.03-.033-.006q.282.055.564.084zm.673.045h-.135l-.14-.008-.136-.01-.13-.01q.282.028.563.03h-.028zm.425-.008l-.146.006h-.246q.278 0 .553-.02h-.018zm.935-.125l-.16.03-.165.024-.162.023-.163.02-.12.01a6.113 6.113 0 0 0 1.08-.19l-.11.03q-.1.03-.205.052zm.608-.164q-.1.032-.2.06l-.074.02a5.93 5.93 0 0 0 .866-.322c-.13.06-.26.124-.4.174q-.098.036-.197.068zm.892-.373c-.03.016-.066.027-.1.043a5.636 5.636 0 0 0 .8-.482c-.023.016-.042.036-.065.052a5.63 5.63 0 0 1-.64.387zm.856-.563a5.236 5.236 0 0 0 .563-.508c-.07.073-.13.15-.205.22-.115.104-.24.195-.36.29zm1.185-1.285q-.05.08-.1.16t-.11.154l-.116.15c-.038.045-.084.085-.123.13a4.846 4.846 0 0 0 .542-.743q-.053.076-.1.15zm.678-1.93l-.006.055q-.007.057-.016.114t-.018.114q-.01.058-.022.116t-.025.116q-.014.058-.03.117t-.035.118v.02l-.006.02-.006.02-.006.022q-.016.052-.033.1t-.037.1q-.018.05-.038.1t-.04.1q-.028.068-.06.136t-.062.134q-.033.066-.067.13t-.07.13l-.007.01a4.64 4.64 0 0 0 .412-.945 4.462 4.462 0 0 0 .168-.826zm5.112-6.908a6.067 6.067 0 0 1-.838-.41 6.053 6.053 0 0 0 .838.41l.156.06-.057-.022zm.2.074l-.014-.004.15.053-.038-.013zm.2.07l-.033-.012.153.046-.045-.01zm1.25.265l-.12-.015-.127-.016-.123-.02-.124-.022-.12-.025-.124-.027-.05-.01-.048-.013-.05-.012-.048-.013-.08-.022-.08-.022-.02-.006.178.05a6.463 6.463 0 0 0 1.057.185zm2.374-.207q-.088.027-.177.05l-.065.016a5.15 5.15 0 0 0 .755-.266c-.113.05-.223.1-.342.143q-.088.034-.174.058zm1.5-.77a3.88 3.88 0 0 0 .46-.42c-.056.06-.1.124-.165.18-.1.086-.203.162-.304.24zm.95-1.06q-.038.065-.08.13t-.084.128q-.044.063-.09.124c-.03.038-.068.07-.1.108a3.42 3.42 0 0 0 .42-.613c-.03.04-.05.082-.074.122zm-1.076 1.16c-.02.013-.034.03-.054.043a4.5 4.5 0 0 1-.543.32c-.027.013-.057.022-.085.035a4.51 4.51 0 0 0 .674-.397zm-1.628.74l-.1.025-.182.04-.142.025-.143.023-.146.02-.146.016-.106.01a5.725 5.725 0 0 0 .956-.157zm-.965.158h-.018l-.13.008-.133.005h-.387l-.124-.006-.125-.008-.12-.01a6.172 6.172 0 0 0 1.028.01zM75.59 43.99q-.132.085-.273.16a3.952 3.952 0 0 0 .532-.34l-.008.006q-.12.09-.252.175zm.484-.365c-.068.06-.14.12-.213.176a3.3 3.3 0 0 0 .436-.4l-.014.017q-.098.107-.208.207zm.57-.69q-.025.042-.05.082t-.07.1q-.037.052-.076.1t-.08.1c-.02.025-.043.05-.065.073a2.784 2.784 0 0 0 .34-.46zm4.142-5.6l.137.042-.05-.015zm.173.052l-.018-.005.133.042-.028-.007zm.176.048l-.038-.01.137.034-.035-.004zm2.524.128l-.114.017-.116.015-.117.013-.118.01-.087.006a5.545 5.545 0 0 0 .777-.1l-.077.016zm1.05-.293c-.022.01-.046.015-.068.024a3.7 3.7 0 0 0 .54-.264l-.04.03a3.687 3.687 0 0 1-.432.214zm1.31-1.014q-.028.044-.06.087t-.064.085q-.034.042-.07.083c-.023.027-.053.048-.077.073a2.157 2.157 0 0 0 .32-.41c-.014.033-.03.06-.048.087zm-.377.428c-.043.04-.08.083-.128.12-.072.057-.155.107-.234.16a2.818 2.818 0 0 0 .363-.276zm-1.142.66c-.09.03-.176.066-.27.093l-.138.037-.14.033-.052.017a4.647 4.647 0 0 0 .6-.177zm-1.4.282h-.01l-.107.005h-.515l-.1-.004-.1-.007a6.2 6.2 0 0 0 .832.01zm-.835-.002l-.1-.008-.1-.01-.1-.01-.1-.014-.1-.015-.1-.016-.1-.017-.04-.008-.04-.008-.04-.008-.04-.01-.066-.013-.066-.015h-.02l.146.028a6.538 6.538 0 0 0 .865.124zM80.5 28.508q-.11.06-.227.112a3.182 3.182 0 0 0 .438-.238q-.097.067-.21.126zm.4-.26c-.058.046-.12.09-.182.13a2.432 2.432 0 0 0 .356-.28l-.005.004q-.08.077-.17.147zm.41-.424q-.026.037-.054.073t-.058.07q-.03.036-.062.07l-.06.06a1.832 1.832 0 0 0 .27-.326zm3.29-3.978a5.762 5.762 0 0 1-.584-.192 5.756 5.756 0 0 0 .584.192l.117.03-.038-.01zm.158.04h-.017l.117.027h-.02zm.165.038l-.04-.01.117.025h-.023zm2.134.09l-.1.013-.1.01-.1.01-.1.007h-.074a5.4 5.4 0 0 0 .652-.074l-.064.01zm.877-.208c-.018.006-.04.01-.057.017a3.234 3.234 0 0 0 .45-.188c-.013.006-.023.014-.035.02a3.228 3.228 0 0 1-.358.15zm1.116-.782c-.013.02-.026.04-.04.058s-.03.042-.048.062-.034.04-.053.06-.038.04-.058.06-.043.034-.063.052a1.518 1.518 0 0 0 .26-.292zm-.347.364c-.035.028-.066.06-.1.086-.06.04-.127.076-.193.113a2.238 2.238 0 0 0 .29-.2zm-.943.47c-.075.023-.148.048-.227.067l-.115.026-.118.024-.045.008a4.366 4.366 0 0 0 .506-.126zm-1.17.2h-.706l-.084-.01-.085-.007-.085-.007-.087-.01-.086-.01-.087-.01-.087-.014-.034-.006-.035-.006-.034-.006-.033-.006-.056-.01-.055-.01h-.02l.132.024a6.407 6.407 0 0 0 1.442.088zm-2.567-6.584q-.09.043-.186.08a2.72 2.72 0 0 0 .36-.173q-.085.05-.174.094zm.325-.188c-.045.032-.093.062-.143.09a1.9 1.9 0 0 0 .288-.2l-.008.008q-.064.05-.137.1zm.364-.354l-.03.042q-.02.027-.043.054l-.048.052-.05.05-.045.04a1.31 1.31 0 0 0 .215-.24zm2.66-2.92l.1.02-.034-.008zm.128.026h-.012l.1.02h-.023zm.182.034l-.048-.01-.034-.004.107.02zm1.007.1h-.296l-.073-.005-.073-.006-.075-.006-.072-.022-.073-.008-.075-.01h-.12l-.05-.008-.048-.008h-.017l.114.018a6.553 6.553 0 0 0 .97.074h-.107zm.9-.052l-.106.014-.083.01-.083.007-.085.008-.086.006H88.8a5.528 5.528 0 0 0 .882-.067zm.3-.053l-.1.02-.1.018h-.004a3.754 3.754 0 0 0 .707-.185c-.057.02-.112.044-.174.063l-.328.082zm.57-.172c.068-.027.13-.057.19-.088-.046.024-.09.05-.143.07zm.3-.143l-.02.01a1.68 1.68 0 0 0 .232-.155 1.24 1.24 0 0 0 .117-.11 1.227 1.227 0 0 1-.118.11 1.64 1.64 0 0 1-.207.143zm5.127.854q.038.037.08.073c-.015-.013-.035-.024-.048-.037s-.02-.026-.028-.04zm.457.36zm.556.286c-.04-.018-.072-.04-.11-.06a5.5 5.5 0 0 0 .757.3 5.76 5.76 0 0 1-.647-.24zm2.84.54h-.616l-.076-.006-.077-.006-.077-.007-.078-.008-.08-.01-.078-.01h-.03l-.027-.02h-.062l-.052-.01-.05-.007-.052-.01-.05-.008-.093-.017-.09-.018-.09-.02-.09-.02-.107-.025-.106-.028-.1-.03-.1-.03a6.906 6.906 0 0 0 .987.224 6.61 6.61 0 0 0 1.294.072h-.02zm.5-.04l-.082.01-.085.01-.086.006-.087.006h-.065a5.08 5.08 0 0 0 .566-.058l-.053.01zm.31-.05l-.1.02-.043.002a3.76 3.76 0 0 0 .427-.1c-.063.018-.122.038-.19.053zm.435-.113l-.048.012a2.518 2.518 0 0 0 .37-.148l-.028.016a2.494 2.494 0 0 1-.3.118zm.868-.617l-.026.046s-.02.032-.033.048l-.037.048-.04.047c-.015.015-.034.027-.05.04a.935.935 0 0 0 .18-.23zm-.25.287c-.028.022-.05.046-.08.067a1.754 1.754 0 0 1-.154.09 1.546 1.546 0 0 0 .23-.158zm2.154-3.078l-.05-.01.092.018zm.1.02l-.05-.01.086.015zm.1.016l-.05-.008.093.014zm.713.08h-.073l-.073-.006-.074-.007-.075-.007-.075-.014-.076-.01h-.12l-.05-.006-.054-.024.1.015c.218.03.43.05.637.06zm.58.01h-.507c.206.01.4.01.593 0h-.01zm.468-.034l-.078.01-.08.007-.08.007-.082.005h-.06a4.924 4.924 0 0 0 .53-.052l-.05.008zm.282-.05l-.094.017-.035.006a3.513 3.513 0 0 0 .4-.088c-.057.016-.113.034-.176.048zm.4-.1l-.044.012a2.248 2.248 0 0 0 .337-.133l-.025.014a2.24 2.24 0 0 1-.26.107zm.352-.155a1.3 1.3 0 0 0 .207-.14c-.025.02-.044.04-.07.06a1.52 1.52 0 0 1-.132.08zm.373-.313l-.03.043-.036.042c-.013.013-.03.024-.043.036a.746.746 0 0 0 .157-.207l-.02.043s-.013.03-.023.045z"/><circle class="cls-1" cx="101.914" cy="15.072" r=".001" transform="rotate(-75.964 101.738 14.934)"/><circle class="cls-1" cx="56.599" cy="16.615" r=".001" transform="rotate(-2.49 50.258 16.468)"/><path class="cls-1" d="M37.668 41l.002.007v-.002L37.667 41zM119.067 24.64c.205-1.008.427-1.993.6-2.987a.438.438 0 0 1 .516-.45c1.344.01 2.69.01 4.033 0 .356 0 .47.12.4.49-.35 1.943-.678 3.89-1.016 5.838q-.517 2.977-1.04 5.952-.483 2.75-.97 5.5c-.348 1.964-.718 3.925-1.037 5.893a25 25 0 0 1-3.47 10.138 15.625 15.625 0 0 1-7.442 6.08 14.168 14.168 0 0 1-5.222 1.012 12.308 12.308 0 0 1-7.483-2.2.43.43 0 0 1-.154-.7c.852-1.275 1.683-2.563 2.5-3.856a.56.56 0 0 1 .923-.2 9.026 9.026 0 0 0 12.825-3.646 32.07 32.07 0 0 0 1.4-3.692 3.923 3.923 0 0 0 .088-.827c-.68.45-1.236.84-1.813 1.2a14.473 14.473 0 0 1-10.63 2.11 11.38 11.38 0 0 1-9.1-7.724 13.8 13.8 0 0 1 .116-9.205 18.383 18.383 0 0 1 7.985-9.975 15.885 15.885 0 0 1 11.33-2.4 10.754 10.754 0 0 1 6.173 3.3c.1.11.212.217.32.324a.678.678 0 0 0 .17.027zm-2.508 10.384c.045-5.693-3.854-9.072-8.632-8.417a11.13 11.13 0 0 0-5.555 2.43c-3.142 2.522-5.03 6.863-3.722 10.8a7.01 7.01 0 0 0 5.65 4.738 9.675 9.675 0 0 0 7.306-1.74c2.994-2.11 4.81-4.937 4.953-7.81zM176.482 47.256c-.222 1.212-.442 2.392-.653 3.575q-.53 2.945-1.047 5.894c-.237 1.34-.487 2.68-.7 4.025-.137.876-.115.887-.978.888-1.4 0-2.8-.015-4.206.008-.483.008-.7-.063-.595-.633.36-1.884.67-3.777 1-5.665q.51-2.89 1.027-5.778.668-3.746 1.338-7.48c.328-1.85.646-3.7.974-5.554q.668-3.767 1.343-7.534.482-2.72.953-5.44c.112-.642.23-1.284.312-1.93a.453.453 0 0 1 .557-.426c1.305 0 2.61.01 3.917 0 .376 0 .462.147.393.5-.156.79-.288 1.585-.43 2.378-.03.175-.06.35-.115.683.73-.5 1.313-.917 1.916-1.3a15.2 15.2 0 0 1 11.236-2.463 11.464 11.464 0 0 1 9.045 7.243 12.877 12.877 0 0 1 .59 7.847 18.21 18.21 0 0 1-9.376 12.31 15.59 15.59 0 0 1-10.368 1.936 10.624 10.624 0 0 1-5.555-2.694c-.126-.116-.255-.23-.388-.34a.664.664 0 0 0-.19-.05zm1.89-9.99a7.328 7.328 0 0 0 1.393 4.428c2.18 3.015 5.99 3.6 9.318 2.482a11.09 11.09 0 0 0 5.583-4.14 9.083 9.083 0 0 0 1.64-8.4 7.193 7.193 0 0 0-6.134-4.926 9.8 9.8 0 0 0-6.75 1.753 10.758 10.758 0 0 0-5.05 8.804zM162.95 46.524c-.748.506-1.346.933-1.965 1.33a15.213 15.213 0 0 1-11.237 2.442 11.322 11.322 0 0 1-8.985-7.3 13.788 13.788 0 0 1-.07-9.682 18.29 18.29 0 0 1 8.005-9.955 15.843 15.843 0 0 1 11.333-2.38 10.685 10.685 0 0 1 6.286 3.436c.063.07.13.136.2.2a.535.535 0 0 0 .123.038 2.013 2.013 0 0 0 .15-.376c.167-.866.342-1.732.47-2.6a.43.43 0 0 1 .487-.48c1.363.013 2.727.01 4.09 0 .328 0 .438.123.377.462-.252 1.4-.48 2.8-.724 4.2-.338 1.926-.685 3.85-1.027 5.777q-.678 3.823-1.353 7.647c-.328 1.87-.646 3.742-.97 5.612-.283 1.625-.562 3.25-.868 4.87a.51.51 0 0 1-.382.3c-1.382.022-2.765.01-4.147.016-.37 0-.4-.187-.343-.485.15-.79.285-1.585.426-2.378.033-.173.064-.35.123-.696zm-9.578-1.837a9.7 9.7 0 0 0 5.875-1.85c3.488-2.5 5.445-5.81 4.844-10.224a6.674 6.674 0 0 0-4.055-5.346 8.4 8.4 0 0 0-6.925-.045 10.9 10.9 0 0 0-7.233 9.21 7.29 7.29 0 0 0 7.496 8.26zM275.03 37.48c-3.628 0-7.257.01-10.886-.013-.56 0-.71.177-.644.7a7.357 7.357 0 0 0 5.545 6.46c3.19.79 6.063-.084 8.807-1.62a26.228 26.228 0 0 0 2.275-1.55c.3-.213.483-.262.72.128.7 1.145 1.442 2.26 2.18 3.38a.415.415 0 0 1-.095.64 22.427 22.427 0 0 1-5.3 3.294 18.542 18.542 0 0 1-6.953 1.624c-5.135.16-9.76-2.107-11.97-7.1a13.9 13.9 0 0 1-.755-8.572 17.14 17.14 0 0 1 7.116-10.828 16.128 16.128 0 0 1 12.392-3.04 10.552 10.552 0 0 1 8.195 6.17 15.966 15.966 0 0 1 1.214 8.712c-.2 1.925 0 1.6-1.76 1.61-3.36.014-6.72.003-10.08.003zm-2.293-4.62h7.772c.39 0 .683-.028.64-.548a6.578 6.578 0 0 0-3.466-5.6c-2.688-1.462-5.412-1.132-8.053.147a10.523 10.523 0 0 0-5.1 5.317c-.274.61-.235.683.435.684h7.772zM209.12 9.693h5.8l-2.332 13.325c.54-.3.914-.505 1.288-.71a11.576 11.576 0 0 1 8.72-1.163 9.56 9.56 0 0 1 6.438 5.123 11.25 11.25 0 0 1 .858 7.13c-.325 1.95-.67 3.895-1.005 5.84l-1.35 7.826c-.142.832-.3 1.663-.4 2.5a.5.5 0 0 1-.582.527q-2.42-.014-4.84 0c-.385 0-.475-.117-.4-.52.634-3.59 1.236-7.184 1.858-10.774q.48-2.778 1-5.55a5.566 5.566 0 0 0-3.04-6.12 6.115 6.115 0 0 0-4.432-.22 8.46 8.46 0 0 0-4.89 3.762 8.09 8.09 0 0 0-1.09 3.06c-.31 1.854-.646 3.7-.97 5.555l-1.046 5.95c-.264 1.492-.525 2.985-.82 4.47a.6.6 0 0 1-.434.37c-1.65.026-3.3.01-4.955.02-.383 0-.452-.17-.392-.5.33-1.83.65-3.664.972-5.5l1.04-5.893q.66-3.74 1.322-7.478c.323-1.832.64-3.665.96-5.5q.678-3.853 1.36-7.706c.326-1.87.644-3.742.97-5.613.125-.735.26-1.468.392-2.21z"/><path class="cls-1" d="M251.04 21.157c.194.015.414.046.635.047 2.688 0 5.376.017 8.064-.007.542 0 .654.16.557.667-.242 1.26-.448 2.53-.656 3.8a.672.672 0 0 1-.805.653c-2.688-.03-5.376 0-8.064-.023a.706.706 0 0 0-.842.73c-.4 2.44-.874 4.868-1.3 7.3-.348 1.98-.725 3.96-.987 5.955a3.46 3.46 0 0 0 3.4 3.942c1.494.086 2.995.034 4.492.045.722 0 .7 0 .57.7-.247 1.358-.442 2.726-.707 4.08-.074.378.09 1.033-.564 1.023-2.47-.04-4.965.288-7.4-.316a7.1 7.1 0 0 1-5.59-5.874 14 14 0 0 1 .233-5.082c.334-1.85.65-3.7.976-5.552q.665-3.767 1.338-7.532c.327-1.85.642-3.7.97-5.553.453-2.548.92-5.094 1.363-7.644a.528.528 0 0 1 .645-.52q2.3.04 4.608 0c.476-.01.6.12.512.6-.51 2.79-.994 5.586-1.485 8.38a.66.66 0 0 0 .04.18zM132.36 23.513c.427-.27.708-.444.987-.623a10.87 10.87 0 0 1 5.377-1.65c1.4-.078 2.8-.018 4.205-.038.422-.006.516.12.43.547-.294 1.466-.56 2.94-.79 4.417a.57.57 0 0 1-.667.576 28.78 28.78 0 0 0-4.412.26 6.707 6.707 0 0 0-5.6 5.12c-.484 1.89-.767 3.832-1.11 5.756-.348 1.944-.653 3.9-.988 5.843s-.7 3.888-1.016 5.84a.512.512 0 0 1-.62.532q-2.333-.026-4.667 0c-.438 0-.575-.112-.49-.568.456-2.45.89-4.907 1.323-7.362.327-1.85.64-3.7.964-5.556.44-2.513.89-5.024 1.334-7.537q.49-2.777.968-5.555c.11-.642.186-1.293.335-1.926a.62.62 0 0 1 .46-.364c1.304-.03 2.61-.015 3.917-.018.387 0 .423.168.342.516-.13.528-.176 1.076-.28 1.787zM238.23 21.208c.806 0 1.613.008 2.42 0 .367-.005.452.133.386.493q-.965 5.29-1.9 10.585c-.62 3.53-1.212 7.066-1.822 10.6-.382 2.21-.782 4.417-1.156 6.628a.58.58 0 0 1-.675.586c-1.555-.02-3.11-.012-4.664 0-.388 0-.53-.08-.447-.538.633-3.548 1.22-7.1 1.842-10.653.53-3.022 1.09-6.038 1.626-9.058.484-2.718.966-5.436 1.42-8.158a.49.49 0 0 1 .61-.482c.785.012 1.573-.004 2.36-.004zM238.73 18.694c-2.326.057-3.6-1.856-2.792-4.193a4.6 4.6 0 0 1 3.875-2.808 2.937 2.937 0 0 1 2.93 3.905 4.134 4.134 0 0 1-4.014 3.097z"/></svg>