<svg xmlns="http://www.w3.org/2000/svg" width="355.701" height="506.5" viewBox="0 0 355.701 506.5"><title>graphite_pattern</title><path d="M340.3 86.6c-.7 0-1.3.1-2 .1l-11-19.1a15.257 15.257 0 0 0 3.3-9.3 15 15 0 0 0-29-5.4h-22a15.044 15.044 0 0 0-14-9.6 19.418 19.418 0 0 0-2.4.2l-10.8-18.7a15.17 15.17 0 0 0 3.2-9.3 14.99 14.99 0 0 0-28.9-5.6h-22.2a14.99 14.99 0 0 0-28.9 5.6 15.17 15.17 0 0 0 3.2 9.3l-10.7 18.7a19.42 19.42 0 0 0-2.4-.2 14.82 14.82 0 0 0-13.9 9.5h-22.2a14.967 14.967 0 0 0-28.9 5.5 15.17 15.17 0 0 0 3.2 9.3l-11 19.2a16.352 16.352 0 0 0-2.2-.2 14.82 14.82 0 0 0-13.9 9.5H54.6a14.967 14.967 0 0 0-28.9 5.5 14.46 14.46 0 0 0 3.3 9.3l-11.1 19.2a13.55 13.55 0 0 0-2-.2 15 15 0 1 0 0 30 14.92 14.92 0 0 0 2.1-.2l11 19.1a15.257 15.257 0 0 0-3.3 9.3 14.46 14.46 0 0 0 3.3 9.3l-11 19a14.918 14.918 0 0 0-2.1-.2 15 15 0 1 0 0 30c.6 0 1.3-.1 1.9-.1l11.1 19.2a15.17 15.17 0 0 0-3.2 9.3 14.99 14.99 0 0 0 28.9 5.6h22.2a14.98 14.98 0 0 0 13.9 9.4 16.35 16.35 0 0 0 2.2-.2l11.1 19.3a15.257 15.257 0 0 0-3.3 9.3 15.027 15.027 0 0 0 29 5.5h22.1a14.955 14.955 0 0 0 14 9.5 16.35 16.35 0 0 0 2.2-.2l11 19.1a14.94 14.94 0 0 0-3.3 9.4 14.734 14.734 0 0 0 3.3 9.4l-11 19a14.68 14.68 0 0 0-16.2 9.4h-22.1a15.044 15.044 0 0 0-14-9.6 17.85 17.85 0 0 0-2.3.2l-11-19.1a15.17 15.17 0 0 0 3.2-9.3 14.99 14.99 0 0 0-28.9-5.6H54.5a14.99 14.99 0 0 0-28.9 5.6 15.17 15.17 0 0 0 3.2 9.3l-11 19.1a16.412 16.412 0 0 0-2.3-.2 15 15 0 0 0 0 30 14.978 14.978 0 0 0 2.2-.2l11.1 19.2a15.257 15.257 0 0 0-3.3 9.3 14.967 14.967 0 0 0 28.9 5.5h22.1a14.6 14.6 0 0 0 16.1 9.3l11 19.1a15.17 15.17 0 0 0-3.2 9.3 14.99 14.99 0 0 0 28.9 5.6h22.2a14.99 14.99 0 0 0 28.9-5.6 15.17 15.17 0 0 0-3.2-9.3l11-19.1a14.458 14.458 0 0 0 16-9.3h22.4a14.967 14.967 0 0 0 28.9-5.5 14.67 14.67 0 0 0-3.2-9.2l11.1-19.3a14.976 14.976 0 1 0 2.1-29.8 16.35 16.35 0 0 0-2.2.2l-11-19.1a14.67 14.67 0 0 0 3.2-9.2 15.17 15.17 0 0 0-3.2-9.3l11.1-19.2a14.983 14.983 0 1 0 2.2-29.8 16.35 16.35 0 0 0-2.2.2L252.2 284a15.17 15.17 0 0 0 3.2-9.3 14.67 14.67 0 0 0-3.2-9.2l11.1-19.2a16.412 16.412 0 0 0 2.3.2 15 15 0 0 0 0-30 17.854 17.854 0 0 0-2.3.2l-11-19.2a14.883 14.883 0 0 0 3.2-9.2 15.17 15.17 0 0 0-3.2-9.3l11.1-19.2a16.35 16.35 0 0 0 2.2.2 14.92 14.92 0 0 0 13.9-9.5h22.1a14.967 14.967 0 0 0 28.9-5.5 14.46 14.46 0 0 0-3.3-9.3l11.1-19.2a12.1 12.1 0 0 0 1.9.1 15 15 0 0 0 .1-30zm-22.5 43.6a16.35 16.35 0 0 0-2.2-.2 14.82 14.82 0 0 0-13.9 9.5h-22.1a14.92 14.92 0 0 0-13.9-9.5 16.354 16.354 0 0 0-2.2.2l-10.9-19a14.67 14.67 0 0 0 3.2-9.2 13.267 13.267 0 0 0-.7-4.5 15.654 15.654 0 0 0-2.5-5l11-19.1a16.353 16.353 0 0 0 2.2.2 15.112 15.112 0 0 0 14.1-9.8h21.9a14.98 14.98 0 0 0 13.9 9.4 16.353 16.353 0 0 0 2.2-.2l10.9 18.9a15.1 15.1 0 0 0-3.4 9.5 14.894 14.894 0 0 0 3.5 9.6zm-63.9 283.9l-11.1 19.1a17.85 17.85 0 0 0-2.3-.2 15.056 15.056 0 0 0-14 9.5h-22.1a14.584 14.584 0 0 0-16.1-9.3l-11-19.1a14.734 14.734 0 0 0 3.3-9.4 14.46 14.46 0 0 0-3.3-9.3l11-19a14.538 14.538 0 0 0 16.1-9.4h22.1a15.044 15.044 0 0 0 14 9.6 16.412 16.412 0 0 0 2.3-.2l11 19a15.257 15.257 0 0 0-3.3 9.3 15.638 15.638 0 0 0 3.4 9.4zm-86 62.3a16.35 16.35 0 0 0-2.2-.2 15.044 15.044 0 0 0-14 9.6h-22a15.044 15.044 0 0 0-14-9.6 17.85 17.85 0 0 0-2.3.2l-11-19.1a14.932 14.932 0 0 0 .1-18.6l11.1-19.2a16.35 16.35 0 0 0 2.2.2 14.98 14.98 0 0 0 13.9-9.4h22.1a14.505 14.505 0 0 0 16 9.2l11 19.1a14.734 14.734 0 0 0-3.3 9.4 15.105 15.105 0 0 0 3.3 9.4zM54.6 442.5a14.73 14.73 0 0 0-16.2-9.3L27.3 414a14.932 14.932 0 0 0 .1-18.6l11-19.1a16.35 16.35 0 0 0 2.2.2 15.044 15.044 0 0 0 14-9.6h22.1a14.68 14.68 0 0 0 16.2 9.4l11 19.1a15.114 15.114 0 0 0 0 18.6l-11.1 19.2a16.35 16.35 0 0 0-2.2-.2 15.056 15.056 0 0 0-14 9.5h-22zm0-173.2a15.044 15.044 0 0 0-14-9.6 17.85 17.85 0 0 0-2.3.2L27.4 241a14.7 14.7 0 0 0 3.5-9.6 15.1 15.1 0 0 0-3.4-9.5L38.4 203a16.35 16.35 0 0 0 2.2.2 15.056 15.056 0 0 0 14-9.5h22.1a14.73 14.73 0 0 0 16.2 9.3l11 19.1a14.67 14.67 0 0 0-3.2 9.2 14.46 14.46 0 0 0 3.3 9.3l-11.1 19.2a16.412 16.412 0 0 0-2.3-.2 15.044 15.044 0 0 0-14 9.6h-22v.1zM27.4 135.5l11-19.1a16.353 16.353 0 0 0 2.2.2 14.82 14.82 0 0 0 13.9-9.5h22.1a14.6 14.6 0 0 0 16.1 9.3l11.1 19.2a15.114 15.114 0 0 0 0 18.6l-11.1 19.2a14.6 14.6 0 0 0-16.1 9.3h-22a14.92 14.92 0 0 0-13.9-9.5 16.354 16.354 0 0 0-2.2.2l-11-19a14.94 14.94 0 0 0 3.3-9.4 15.1 15.1 0 0 0-3.4-9.5zm86.1-62.4a16.352 16.352 0 0 0 2.2.2 14.82 14.82 0 0 0 13.9-9.5h21.9a14.673 14.673 0 0 0 16.3 9.7l10.9 18.9a14.67 14.67 0 0 0-3.2 9.2 13.267 13.267 0 0 0 .7 4.5 12.586 12.586 0 0 0 2.6 5l-11 19a14.458 14.458 0 0 0-16 9.3h-22.2a14.6 14.6 0 0 0-16.1-9.3l-11.1-19.2a15.114 15.114 0 0 0 0-18.6zm113.2-52.2a14.68 14.68 0 0 0 16.2 9.4l11 19.1a15.114 15.114 0 0 0 0 18.6l-11.1 19.2a16.352 16.352 0 0 0-2.2-.2 15.056 15.056 0 0 0-14 9.5h-22a14.73 14.73 0 0 0-16.2-9.3L177.3 68a14.932 14.932 0 0 0 .1-18.6l11-19.1a16.352 16.352 0 0 0 2.2.2 15.044 15.044 0 0 0 14-9.6h22.1zm-47.9 176.7l-10.9 18.9a16.35 16.35 0 0 0-2.2-.2 14.99 14.99 0 0 0-14 9.7h-22a15.134 15.134 0 0 0-14-9.7 16.414 16.414 0 0 0-2.3.2l-11-19a15.257 15.257 0 0 0 3.3-9.3 14.46 14.46 0 0 0-3.3-9.3l11-19.1a16.412 16.412 0 0 0 2.3.2 15.1 15.1 0 0 0 14-9.5h22.1a14.955 14.955 0 0 0 14 9.5 16.354 16.354 0 0 0 2.2-.2l11 19a14.734 14.734 0 0 0-3.3 9.4 13.865 13.865 0 0 0 3.1 9.4zm-76.4 67.9l11.1-19.3a14.7 14.7 0 0 0 16.1-9.1h22.2a14.554 14.554 0 0 0 16 9.1l11.1 19.1a14.734 14.734 0 0 0-3.3 9.4 15.1 15.1 0 0 0 3.4 9.5l-11.1 19.2a14.458 14.458 0 0 0-16 9.3h-22.3a14.6 14.6 0 0 0-16.1-9.3l-11.1-19.3a14.734 14.734 0 0 0 3.3-9.4 15.37 15.37 0 0 0-3.3-9.2zm151.5 62l-11.1 19.2a16.412 16.412 0 0 0-2.3-.2 14.98 14.98 0 0 0-13.9 9.4h-22.2a14.505 14.505 0 0 0-16-9.2l-11-19.2a15.038 15.038 0 0 0 0-18.8l11.1-19.2a13.552 13.552 0 0 0 2 .2 14.98 14.98 0 0 0 13.9-9.4h22.2a14.65 14.65 0 0 0 16.1 9.2l11.1 19.3a14.734 14.734 0 0 0-3.3 9.4 15.35 15.35 0 0 0 3.4 9.3zm0-86.7l-11 19.1a19.418 19.418 0 0 0-2.4-.2 15.044 15.044 0 0 0-14 9.6h-22a15.044 15.044 0 0 0-14-9.6 16.35 16.35 0 0 0-2.2.2l-11-19.1a14.94 14.94 0 0 0 3.3-9.4 15.17 15.17 0 0 0-3.2-9.3l11-19a14.585 14.585 0 0 0 16.1-9.3h22.1a14.955 14.955 0 0 0 14 9.5 16.414 16.414 0 0 0 2.3-.2l11.1 19.2a15.17 15.17 0 0 0-3.2 9.3 14.41 14.41 0 0 0 3.1 9.2zm-11.1-67.4a17.85 17.85 0 0 0-2.3-.2 14.92 14.92 0 0 0-13.9 9.5h-22.1a14.458 14.458 0 0 0-16-9.3l-11-19.1a15.323 15.323 0 0 0 3.3-9.4 14.734 14.734 0 0 0-3.3-9.4l10.8-18.8a19.42 19.42 0 0 0 2.4.2 14.92 14.92 0 0 0 13.9-9.5h22.1a14.92 14.92 0 0 0 13.9 9.5 19.42 19.42 0 0 0 2.4-.2l10.9 18.8a15.257 15.257 0 0 0-3.3 9.3 14.46 14.46 0 0 0 3.3 9.3z" fill="none" stroke="#fff" stroke-miterlimit="10"/></svg>