<svg xmlns="http://www.w3.org/2000/svg" width="346.4" height="300.1" viewBox="0 0 346.4 300.1"><title>honeycomb</title><path d="M44.4 300v-48.8l42.2-24.4 42.4 24.5V300l-.1.1h2.2l-.1-.1v-48.8l42.1-24.3 42.3 24.4V300h2.1v-49l42.1-24.3 42.4 24.5V300h2.2l-.1-.1v-48.8l42.3-24.4v-52.4l-.1.1L304 150v-48.8l42.3-24.4h.1V24.3l-.1.1L304 0h-2.1l-42.2 24.4L217.5.1V0h-2.1l-42.2 24.4L131 0h-2.1L86.6 24.4 44.4 0h-2.1L0 24.4v52.3l42.3 24.4V150L0 174.4v52.3l42.4 24.5V300h2zm127.7-74.9L130 249.4l-42.4-24.5v-48.8l42.3-24.4 42.2 24.3v49.1zm86.6-.1l-42.1 24.3-42.3-24.4v-48.8l42.2-24.4 42.3 24.4V225h-.1zm86.6-48.8V225l-42.2 24.4-42.4-24.5v-48.8l42.3-24.4zm-84.6-150L303 1.7l42.3 24.4V75L303 99.4 260.7 75V26.2zm41.3 75V150l-42.3 24.4-42.2-24.3v-49l42.2-24.3zM174.2 26.1l42.2-24.4 42.3 24.4V75l-42.2 24.4L174.2 75V26.1zm41.2 75.1V150l-42.2 24.4-42.3-24.4v-48.8l42.2-24.4zm-127.8-75l42.3-24.4 42.2 24.3v49l-42.2 24.3L87.6 75V26.2zm41.3 75V150l-42.3 24.4L44.3 150v-48.8l42.3-24.4zM1 75V26.2L43.3 1.7l42.3 24.4V75L43.3 99.4zm0 150v-48.8l42.3-24.4 42.3 24.4V225l-42.3 24.4z" fill="#f4f4f4"/></svg>