<svg xmlns="http://www.w3.org/2000/svg" width="140" height="39.6" viewBox="0 0 140 39.6"><title>vimeo</title><g style="isolation:isolate" fill="#49a1d9"><path d="M47.715 23.89c1.9.16 4.664-2.686 6.2-5.73.277-.513.71-.553.87 0a3.633 3.633 0 0 1-.4 2.45c-.553 1.187-3.438 4.466-6.6 4.387-2.727-.08-4.19-1.976-3.28-6.244 1.462-6.877 5.968-14.03 10-18.22a1.07 1.07 0 0 1 1.7-.2c1.146 1.028 1.383 2.49.91 4.348-1.226 4.862-5.652 9.6-9.17 11.9-1.573 3.873-2.008 7.153-.23 7.31zm8.063-20.036c-.514-.315-3.438 4.07-6.166 9.13a21.19 21.19 0 0 0-.948 1.9c5.414-4.39 7.628-10.713 7.114-11.03z"/><path d="M65.617 16.5c-.83 3.36-3.32 7.35-6.244 8.338a4.346 4.346 0 0 1-4.98-1.738c-1.738-2.292-1.145-5.73.633-8.892 1.5-2.687 3.913-4.98 6.284-5.138A2.694 2.694 0 0 1 64 10.415c.91 1.226 2.095 1.5 1.857 4.348-.04.315-.04.593-.08.908.238 0 .475-.077.792-.077.275 0 .275.2.118.395a1.608 1.608 0 0 1-1.07.512zm-3.36-.987a4.914 4.914 0 0 1-1.817-3.48 13.843 13.843 0 0 0-3.04 3.717c-1.66 3-2.252 6.64-1.225 7.508 1.107.91 3.518-.474 5.454-4.11a20.838 20.838 0 0 0 1.382-3.16 3 3 0 0 1-.754-.475zM63.6 12c-.2-1.265-.988-1.027-1.186.118a3.252 3.252 0 0 0 .87 2.807A7.577 7.577 0 0 0 63.6 12zM75.02 26.1c-2.172 5.3-4.978 11.58-8.18 12.845a1.762 1.762 0 0 1-2.29-.83 4.966 4.966 0 0 1-.792-4.9c1.146-3.558 4.545-5.968 8.457-7.47.4-.87.75-1.818 1.146-2.727A5.878 5.878 0 0 1 69.37 25c-3.636 0-4.347-4.94-1.146-9.682 3.082-4.584 6.283-6.362 8.3-6.362a2.315 2.315 0 0 1 2.332 2.608c.474-.79.908-1.5 1.3-2.174.316-.554.71-.593.988-.237.593.712.91 2.41-.08 4.348-1.185 2.372-3.675 7.154-5.334 10.987a19.707 19.707 0 0 0 7.073-5.927c.237-.316.593-.316.672.08a3.873 3.873 0 0 1-.79 2.29c-1.538 2.407-4.385 3.988-7.664 5.17zM65.34 36.734c.514.75 3.636-3.36 6.2-9.366-5.132 3.004-6.87 8.418-6.2 9.366zm11.777-25.766c-1.225-.08-4.11 2.45-6.283 5.89-2.134 3.4-2.57 6.874-.988 6.915 1.54.04 3.557-2.45 5.572-5.928 2.49-4.345 2.846-6.798 1.7-6.877z"/><path d="M94.582 16.5c-.83 3.36-3.32 7.35-6.244 8.338a4.345 4.345 0 0 1-4.98-1.738c-1.74-2.292-1.146-5.73.632-8.892 1.5-2.687 3.912-4.98 6.284-5.138a2.693 2.693 0 0 1 2.687 1.344c.91 1.226 2.096 1.5 1.858 4.348-.04.315-.04.593-.078.908.236 0 .474-.078.79-.078.276 0 .276.2.118.395a1.607 1.607 0 0 1-1.066.513zm-3.36-.987a4.916 4.916 0 0 1-1.822-3.478 13.853 13.853 0 0 0-3.043 3.715c-1.66 3-2.253 6.64-1.225 7.508 1.106.91 3.517-.474 5.453-4.11a20.9 20.9 0 0 0 1.384-3.16 2.993 2.993 0 0 1-.747-.475zM92.567 12c-.2-1.265-.988-1.027-1.186.118a3.25 3.25 0 0 0 .87 2.807A7.577 7.577 0 0 0 92.565 12z"/></g></svg>