<svg xmlns="http://www.w3.org/2000/svg" width="140" height="39.582" viewBox="0 0 140 39.582"><title>vimeo</title><g fill="#1fb7ea"><path d="M38.248 8.675a6.286 6.286 0 0 0 4.5-1.818 4.952 4.952 0 0 0 1.76-3.36 3.3 3.3 0 0 0-.916-2.342A3.11 3.11 0 0 0 41.13 0a7.152 7.152 0 0 0-4.607 1.68 4.888 4.888 0 0 0-2.143 3.5q-.14 3.496 3.868 3.495zM137.803 15.924q-2.533-3.3-7.452-3.3a16.4 16.4 0 0 0-12.724 5.615 14.6 14.6 0 0 0-4.36 11.093c.016.3.042.584.073.87-.177.076-.348.153-.53.23a28.1 28.1 0 0 1-11.04 2.574 4.372 4.372 0 0 1-3.8-1.753 21.434 21.434 0 0 0 11.322-5.263q4.216-3.787 3.937-7.363-.423-5.61-7.313-5.61A17.486 17.486 0 0 0 92.98 18.64q-4.988 5.137-5.06 10.83a12.727 12.727 0 0 0 .1 1.837 3.823 3.823 0 0 1-1.78.78 1.9 1.9 0 0 1-1.688-.56 3.785 3.785 0 0 1-.28-2.03 36.74 36.74 0 0 1 .88-4.307 32.436 32.436 0 0 0 .948-5.71 6.293 6.293 0 0 0-1.126-4.41q-1.476-1.893-4.85-1.612a10.444 10.444 0 0 0-5.415 2.11 18.664 18.664 0 0 0-3.17 3.023c-.375.33-.726.636-1.055.915a6.86 6.86 0 0 0-1.124-4.43q-1.478-1.9-4.922-1.617a12.5 12.5 0 0 0-7.246 3.163 12.94 12.94 0 0 0-2.46 2.814 6.23 6.23 0 0 0 .14-1.336 6.646 6.646 0 0 0-1.127-3.832 3.106 3.106 0 0 0-2.953-1.51q-1.054.07-4.007 2.81-4.08 3.8-4.43 4.078l1.687 1.9a7.828 7.828 0 0 1 2.392-1.422q.77 0 .633 1.262a39.47 39.47 0 0 1-.647 5.083c-.24 1.354-.406 2.5-.514 3.483l-.068.058q-2.53 2.083-3.512 2.083-2.25 0-2.18-3.01 1.054-6.584 1.97-10.858a5.885 5.885 0 0 0-.81-4.1 3.44 3.44 0 0 0-3.408-1.366q-1.48.142-4.5 2.813l-2.106 1.906c-.14-3.315-1.644-5.03-4.54-5.115q-6.51-.208-8.82 7.353a5.864 5.864 0 0 1 2.318-.514q2.388 0 2.108 2.683a12.24 12.24 0 0 1-2.108 4.73q-1.97 3.106-2.953 3.107-1.267 0-2.32-4.788-.354-1.405-1.266-7.18-.843-5.35-4.5-5-1.548.14-4.64 2.815-2.25 2.04-4.57 4.077l1.472 1.9A9.684 9.684 0 0 1 3.93 20.07q1.61 0 3.015 5.056l2.53 9.265q1.89 5.06 4.63 5.058 4.42 0 10.806-8.3c2.99-3.847 4.917-7.093 5.81-9.755a7.06 7.06 0 0 1 2.185-1.326q1.264 0 1.266 1.827 0 .352-1.372 5.2a33.18 33.18 0 0 0-1.44 7.167 5.277 5.277 0 0 0 1.09 3.654 4.082 4.082 0 0 0 3.344 1.405q4.71 0 9.42-4.076c.287-.25.54-.515.812-.773a5.654 5.654 0 0 0 1.3 2.615q2.028 2.176 6.855 2.034a14.61 14.61 0 0 1-.5-5.485 20.423 20.423 0 0 1 2.25-8.367q2.04-4.007 3.8-4.01 2.04 0 1.9 2.6a18.048 18.048 0 0 1-.69 4.01 18.96 18.96 0 0 0-.69 4.5q-.14 3.588 1.614 5.133 1.96 1.758 6.87 1.618a10.4 10.4 0 0 1-.593-4.642 19.423 19.423 0 0 1 2.894-8.858q2.54-4.358 4.372-4.36 1.7 0 1.623 2.67a25.578 25.578 0 0 1-.88 4.92 25.578 25.578 0 0 0-.878 5.41q-.14 5.06 4.43 5.06 4.71 0 9.42-4.076c.054-.046.1-.1.15-.143.11.186.22.372.343.553q2.46 3.794 8.157 3.795a30.03 30.03 0 0 0 15.116-4.282c.56-.315 1.085-.63 1.592-.944A10.01 10.01 0 0 0 115.593 36q2.882 3.58 8.437 3.58a14.845 14.845 0 0 0 11.18-4.7 16.714 16.714 0 0 0 4.78-11.163 11.328 11.328 0 0 0-2.187-7.793zm-40.94 12.65a3.9 3.9 0 0 1 0-.91 9.82 9.82 0 0 1 2.246-5.56q2.175-2.9 4.28-2.9 1.616 0 1.546 1.887-.07 1.4-2.106 3.64a15.82 15.82 0 0 1-5.967 3.843zM130 29.93q-2.25 3.737-5.414 3.734a2.385 2.385 0 0 1-2.18-1.55 6.036 6.036 0 0 1-.633-3.1 13.61 13.61 0 0 1 2.11-6.76q2.317-3.875 5.9-3.876 1.122 0 1.722 1.586a8.85 8.85 0 0 1 .528 3.487A13.326 13.326 0 0 1 130 29.93z"/></g></svg>